<?xml version="1.0" encoding="utf-8"?>
<!-- Generator: Adobe Illustrator 18.1.0, SVG Export Plug-In . SVG Version: 6.00 Build 0)  -->
<!DOCTYPE svg PUBLIC "-//W3C//DTD SVG 1.1//EN" "http://www.w3.org/Graphics/SVG/1.1/DTD/svg11.dtd">
<svg version="1.1" id="Layer_1" xmlns="http://www.w3.org/2000/svg" xmlns:xlink="http://www.w3.org/1999/xlink" x="0px" y="0px"
	 viewBox="0 0 139.7 139.7" enable-background="new 0 0 139.7 139.7" xml:space="preserve">
<g>
	<path fill="#FFFFFF" d="M50.7,43.9l-1.5-5.5c0-0.1,0-0.2,0.1-0.2c0.1,0,0.2,0.1,0.4,0.2l2.3,2.5l0.7-3.3c0.1-0.3,0.1-0.4,0.2-0.4
		c0.1,0,0.2,0,0.3,0.1l1.5,5.5c0,0.1,0,0.2-0.2,0.2c-0.1,0-0.2,0-0.2-0.1L53,38.1l-0.7,3.1c0,0.1-0.1,0.2-0.1,0.2
		c-0.1,0-0.1,0-0.2-0.1L49.8,39l1.3,4.8c0,0.1,0,0.2-0.2,0.2C50.8,44.1,50.7,44,50.7,43.9z"/>
	<path fill="#FFFFFF" d="M55.4,42.7C55.4,42.6,55.4,42.6,55.4,42.7l0.7-6c0-0.1,0.1-0.2,0.2-0.2c0.1,0,0.2,0,0.3,0.1l2.8,5.4
		c0,0,0,0,0,0c0,0,0,0,0,0c0,0,0,0.1-0.1,0.1c0,0-0.1,0.1-0.2,0.1c-0.1,0-0.1,0-0.2-0.1l-0.6-1.2L56,41.3l-0.2,1.4
		c0,0.1-0.1,0.1-0.2,0.2c-0.1,0-0.1,0-0.2,0C55.5,42.7,55.4,42.7,55.4,42.7z M56,40.9l2.1-0.4l-1.7-3.3L56,40.9z"/>
	<path fill="#FFFFFF" d="M60.2,41.8l-0.7-5.7c0,0,0-0.1,0-0.1c0,0,0.1-0.1,0.1-0.1l1.5-0.2c0.5-0.1,0.9,0,1.3,0.3
		c0.3,0.2,0.5,0.7,0.6,1.3l0.3,2.6c0.1,0.6,0,1.1-0.3,1.4c-0.3,0.3-0.7,0.5-1.2,0.6L60.4,42c-0.1,0-0.1,0-0.1,0
		C60.2,41.9,60.2,41.9,60.2,41.8z M60.5,41.6l1.3-0.1c0.4,0,0.7-0.2,0.9-0.4c0.2-0.2,0.3-0.6,0.2-1l-0.3-2.6c-0.1-0.4-0.2-0.8-0.4-1
		c-0.2-0.2-0.6-0.3-1-0.2l-1.3,0.1L60.5,41.6z"/>
	<path fill="#FFFFFF" d="M64.7,41.4l-0.4-5.7c0-0.1,0.1-0.2,0.2-0.2c0.1,0,0.2,0,0.2,0.2l0.4,5.7c0,0.1-0.1,0.2-0.2,0.2
		C64.8,41.5,64.7,41.5,64.7,41.4z"/>
	<path fill="#FFFFFF" d="M66,40.6c0-0.1,0-0.1,0.1-0.2c0-0.1,0.1-0.1,0.1-0.1c0,0,0.1,0,0.2,0.1l0.2,0.2c0.1,0.1,0.2,0.2,0.4,0.2
		c0.2,0.1,0.4,0.1,0.6,0.1c0.4,0,0.8-0.1,1-0.3c0.2-0.2,0.3-0.5,0.3-0.9c0-0.3-0.1-0.6-0.2-0.8c-0.1-0.2-0.3-0.3-0.5-0.4
		c-0.2-0.1-0.4-0.2-0.7-0.3c-0.2-0.1-0.5-0.2-0.7-0.3c-0.2-0.1-0.4-0.2-0.5-0.4c-0.1-0.2-0.2-0.5-0.2-0.8c0-0.3,0-0.5,0.1-0.7
		c0.1-0.2,0.2-0.4,0.4-0.5c0.2-0.1,0.4-0.2,0.5-0.2c0.2,0,0.4-0.1,0.6-0.1c0.3,0,0.6,0,0.9,0.1c0.3,0.1,0.4,0.2,0.4,0.3
		c0,0.1,0,0.1-0.1,0.2c0,0.1-0.1,0.1-0.1,0.1c0,0-0.1,0-0.2-0.1c-0.1-0.1-0.2-0.1-0.4-0.1c-0.2,0-0.4-0.1-0.6-0.1
		c-0.4,0-0.7,0.1-0.9,0.3c-0.2,0.2-0.4,0.4-0.3,0.8c0,0.2,0.1,0.4,0.2,0.6c0.1,0.1,0.2,0.3,0.4,0.3c0.2,0.1,0.3,0.1,0.5,0.2
		c0.2,0.1,0.4,0.1,0.6,0.2c0.2,0.1,0.4,0.2,0.6,0.3c0.2,0.1,0.3,0.3,0.4,0.5c0.1,0.2,0.2,0.5,0.2,0.8c0,0.6-0.1,1-0.4,1.3
		c-0.3,0.3-0.7,0.4-1.2,0.5c-0.5,0-0.9-0.1-1.2-0.3C66.2,41,66,40.8,66,40.6z"/>
	<path fill="#FFFFFF" d="M70.3,39.6l0.1-2.6c0-0.6,0.2-1,0.5-1.3c0.3-0.3,0.7-0.4,1.2-0.4c0.5,0,0.9,0.2,1.2,0.5
		c0.3,0.3,0.4,0.7,0.4,1.3l-0.1,2.6c0,0.6-0.2,1-0.5,1.3c-0.3,0.3-0.7,0.4-1.2,0.4c-0.5,0-0.9-0.2-1.2-0.5
		C70.5,40.7,70.3,40.2,70.3,39.6z M70.8,39.6c0,0.9,0.4,1.4,1.2,1.4c0.4,0,0.7-0.1,0.9-0.3c0.2-0.2,0.3-0.6,0.4-1l0.1-2.6
		c0-0.5-0.1-0.8-0.3-1c-0.2-0.2-0.5-0.4-0.9-0.4c-0.8,0-1.3,0.4-1.3,1.3L70.8,39.6z"/>
	<path fill="#FFFFFF" d="M74.8,41.3l0.5-5.7c0-0.1,0.1-0.2,0.2-0.2c0.1,0,0.2,0.1,0.3,0.4l2,5l0.5-4.9c0-0.1,0.1-0.2,0.2-0.2
		c0.1,0,0.2,0.1,0.2,0.2l-0.5,5.7c0,0.1-0.1,0.2-0.2,0.2c-0.1,0-0.2-0.1-0.3-0.3l-2-5l-0.5,4.9c0,0.1-0.1,0.2-0.2,0.2
		C74.9,41.5,74.8,41.4,74.8,41.3z"/>
	<path fill="#FFFFFF" d="M79.2,41.7c0-0.1,0.1-0.2,0.1-0.2s0.1-0.1,0.2-0.1c0.1,0,0.1,0.1,0.2,0.1c0.1,0.1,0.1,0.2,0.1,0.3
		c0,0.1-0.1,0.4-0.4,0.8c0,0.1-0.1,0.1-0.2,0.1c-0.1,0-0.2-0.1-0.1-0.2c0,0,0-0.1,0-0.1l0.2-0.4C79.2,41.9,79.2,41.8,79.2,41.7z"/>
	<path fill="#FFFFFF" d="M83.2,36.5c0,0,0-0.1,0.1-0.1c0,0,0.1,0,0.1,0c0.1,0,0.1,0.1,0.1,0.2l0.3,5.5l1.5-2.9
		c0-0.1,0.1-0.1,0.2-0.1c0.1,0,0.2,0.1,0.2,0.2l0.2,3.3l2.6-4.9c0-0.1,0.1-0.1,0.2-0.1c0.1,0,0.1,0,0.1,0.1c0,0,0.1,0.1,0,0.1
		c0,0,0,0,0,0.1l-2.9,5.3c-0.1,0.1-0.1,0.1-0.3,0.1c-0.1,0-0.2-0.1-0.2-0.2l-0.2-3.3l-1.5,2.9c0,0.1-0.1,0.1-0.2,0.1
		c-0.1,0-0.2-0.1-0.2-0.2L83.2,36.5C83.2,36.5,83.2,36.5,83.2,36.5z"/>
	<path fill="#FFFFFF" d="M88.5,43.7l1.6-5.5c0-0.1,0.1-0.1,0.3-0.1c0.1,0,0.2,0.1,0.1,0.2l-1.6,5.5c0,0.1-0.1,0.2-0.3,0.1
		C88.5,43.9,88.4,43.8,88.5,43.7z"/>
</g>
<g>
	<path fill="none" d="M71.1,51.2c0-1.6-0.9-2.4-2.6-2.4h-2.4v4.8h2.4C70.2,53.6,71.1,52.8,71.1,51.2z"/>
	<polygon fill="none" points="18.6,52.5 16.4,52.5 15.9,55.2 18.2,55.2 	"/>
	<path fill="none" d="M51,53.6c0.4-0.4,0.6-1.1,0.6-2v-0.2c0-0.9-0.2-1.5-0.6-2c-0.4-0.4-1-0.7-1.8-0.7h-2.5v5.5h2.5
		C50,54.3,50.6,54.1,51,53.6z"/>
	<polygon fill="none" points="47.5,57.6 47.5,57.6 48.4,58.8 	"/>
	<polygon fill="none" points="89.2,49.6 87.1,56.6 91.2,56.6 	"/>
	<path fill="none" d="M111.8,59.7c0.8,0,1.4-0.2,1.8-0.7c0.4-0.4,0.6-1.1,0.6-2v-5.6c0-0.9-0.2-1.5-0.6-2c-0.4-0.4-1-0.7-1.8-0.7
		c-1.6,0-2.4,0.9-2.4,2.6V57C109.3,58.8,110.1,59.7,111.8,59.7z"/>
	<polygon fill="none" points="71.9,74.2 76.3,74 80.6,78.7 80.6,78.7 76.3,74 	"/>
	<polygon fill="none" points="58.8,73.6 59,73.8 60.2,71.8 59,73.8 	"/>
	<polygon fill="none" points="73.2,70 73.2,70 69.4,67.2 68.5,65.7 69.4,67.2 	"/>
	<polygon fill="none" points="91.8,72 95.7,75.5 91.8,72 91.4,71.4 88.3,71.3 91.4,71.4 	"/>
	<path fill="#FFFFFF" d="M12.6,56.4h1.7l-0.5,3.3c0,0.2,0.1,0.3,0.2,0.4c0.1,0.1,0.3,0.2,0.5,0.2c0.1,0,0.2,0,0.4-0.1
		c0.1-0.1,0.2-0.2,0.3-0.3l0.6-3.5H18l-0.6,3.3c0,0.2,0.1,0.3,0.2,0.5c0.1,0.1,0.3,0.2,0.5,0.2c0.1,0,0.3,0,0.4-0.1
		c0.1-0.1,0.2-0.2,0.2-0.3l0.6-3.5h2c0.1,0,0.2-0.1,0.3-0.2c0.1-0.1,0.1-0.3,0.1-0.4c0-0.2-0.1-0.3-0.2-0.4
		c-0.1-0.1-0.2-0.2-0.4-0.2h-1.7l0.5-2.7h2c0.1,0,0.2-0.1,0.3-0.2c0.1-0.1,0.1-0.3,0.1-0.4c0-0.2-0.1-0.3-0.2-0.4
		c-0.1-0.1-0.2-0.2-0.4-0.2h-1.7l0.5-2.9c0-0.2-0.1-0.4-0.2-0.5c-0.1-0.1-0.3-0.2-0.5-0.2c-0.4,0-0.6,0.1-0.6,0.4l-0.5,3.2h-2.2
		l0.5-2.9c0-0.2-0.1-0.4-0.2-0.5c-0.1-0.1-0.3-0.2-0.5-0.2c-0.4,0-0.6,0.1-0.6,0.4l-0.5,3.2h-2c-0.1,0-0.2,0.1-0.3,0.2
		c-0.1,0.1-0.1,0.3-0.1,0.4c0,0.4,0.2,0.6,0.5,0.6H15l-0.5,2.7h-1.9c-0.1,0-0.2,0.1-0.3,0.2c-0.1,0.1-0.1,0.3-0.1,0.4
		C12.1,56.2,12.3,56.4,12.6,56.4z M16.4,52.5h2.2l-0.5,2.7h-2.2L16.4,52.5z"/>
	<path fill="#FFFFFF" d="M25,61c0.2,0,0.4,0,0.5-0.1c0.2-0.1,0.2-0.2,0.2-0.4v-5.8h5v5.8c0,0.2,0.1,0.3,0.2,0.4
		c0.2,0.1,0.3,0.1,0.5,0.1c0.2,0,0.4,0,0.5-0.1c0.2-0.1,0.2-0.2,0.2-0.4V47.9c0-0.2-0.1-0.3-0.2-0.4c-0.2-0.1-0.3-0.1-0.5-0.1
		c-0.2,0-0.4,0-0.5,0.1c-0.2,0.1-0.2,0.2-0.2,0.4v5.3h-5v-5.3c0-0.2-0.1-0.3-0.2-0.4c-0.2-0.1-0.3-0.1-0.5-0.1c-0.2,0-0.4,0-0.5,0.1
		c-0.2,0.1-0.2,0.2-0.2,0.4v12.5c0,0.2,0.1,0.3,0.2,0.4C24.6,60.9,24.8,61,25,61z"/>
	<path fill="#FFFFFF" d="M39.5,55.7c0-0.1,0-0.1,0-0.2l3.8-7.2c0-0.1,0.1-0.2,0.1-0.3c0-0.2-0.1-0.3-0.3-0.5
		c-0.2-0.1-0.4-0.2-0.6-0.2s-0.4,0.1-0.6,0.4l-3.2,6.4l-3.3-6.4c-0.1-0.3-0.3-0.4-0.6-0.4c-0.2,0-0.4,0.1-0.6,0.2
		C34.1,47.7,34,47.9,34,48c0,0.1,0,0.2,0.1,0.3l3.8,7.2c0,0.1,0.1,0.1,0.1,0.2v4.7c0,0.1,0.1,0.2,0.1,0.3l1.4-0.8V55.7z"/>
	<path fill="#FFFFFF" d="M46.7,55.6h2.5c1.2,0,2.2-0.3,2.9-1c0.7-0.6,1.1-1.7,1.1-3v-0.2c0-1.4-0.4-2.4-1.1-3c-0.7-0.6-1.7-1-2.9-1
		h-3.5c-0.2,0-0.3,0.1-0.5,0.2c-0.1,0.1-0.2,0.2-0.2,0.4v9.4l1.6-0.7V55.6z M46.7,48.8h2.5c0.8,0,1.4,0.2,1.8,0.7
		c0.4,0.4,0.6,1.1,0.6,2v0.2c0,0.9-0.2,1.5-0.6,2c-0.4,0.4-1,0.7-1.8,0.7h-2.5V48.8z"/>
	<path fill="#FFFFFF" d="M62.3,61c0.2,0,0.3-0.1,0.4-0.2c0.1-0.1,0.1-0.3,0.1-0.5c0-0.2,0-0.4-0.1-0.5c-0.1-0.1-0.2-0.2-0.4-0.2
		h-5.7v-4.7h2.9c0.2,0,0.3-0.1,0.4-0.2c0.1-0.1,0.1-0.3,0.1-0.4c0-0.2,0-0.3-0.1-0.5c-0.1-0.1-0.2-0.2-0.4-0.2h-2.9v-4.7h5.7
		c0.2,0,0.3-0.1,0.4-0.2c0.1-0.1,0.1-0.3,0.1-0.5c0-0.2,0-0.3-0.1-0.5c-0.1-0.1-0.2-0.2-0.4-0.2h-6.6c-0.2,0-0.3,0-0.5,0.1
		C55.1,47.6,55,47.8,55,48v11.3l2,1.7H62.3z"/>
	<path fill="#FFFFFF" d="M65.3,61c0.2,0,0.4,0,0.5-0.1c0.2-0.1,0.2-0.2,0.2-0.4v-5.5h2.1l2.8,5.4c0.2,0.4,0.4,0.6,0.7,0.6
		c0.2,0,0.4-0.1,0.6-0.3c0.2-0.2,0.3-0.3,0.3-0.5c0-0.1,0-0.2-0.1-0.3l-2.7-5.2c1.8-0.4,2.8-1.6,2.8-3.6c0-1.3-0.4-2.3-1.1-2.8
		c-0.8-0.6-1.7-0.9-3-0.9h-3.4c-0.2,0-0.3,0.1-0.4,0.2c-0.1,0.1-0.2,0.2-0.2,0.4v12.5c0,0.2,0.1,0.3,0.2,0.4
		C65,60.9,65.1,61,65.3,61z M66.1,48.8h2.4c1.7,0,2.6,0.8,2.6,2.4c0,1.6-0.9,2.4-2.6,2.4h-2.4V48.8z"/>
	<path fill="#FFFFFF" d="M75.4,61c0.2,0,0.4,0,0.5-0.1c0.2-0.1,0.2-0.2,0.2-0.4v-9.5l4.8,9.3c0.3,0.5,0.6,0.7,1,0.7
		c0.2,0,0.4,0,0.5-0.1c0.2-0.1,0.2-0.2,0.2-0.4V47.9c0-0.2-0.1-0.3-0.2-0.4c-0.2-0.1-0.3-0.1-0.5-0.1s-0.4,0-0.5,0.1
		c-0.2,0.1-0.2,0.2-0.2,0.4v9.5l-4.6-9c-0.2-0.3-0.3-0.6-0.5-0.8c-0.2-0.2-0.4-0.2-0.7-0.2c-0.5,0-0.8,0.2-0.8,0.5v12.5
		c0,0.2,0.1,0.3,0.2,0.4C75,60.9,75.2,61,75.4,61z"/>
	<path fill="#FFFFFF" d="M84.7,60.8c0.2,0.1,0.4,0.2,0.6,0.2c0.3,0,0.5-0.1,0.6-0.4l0.8-2.7h4.9l0.8,2.7c0.1,0.2,0.3,0.4,0.6,0.4
		c0.2,0,0.5-0.1,0.7-0.2c0.2-0.1,0.3-0.3,0.3-0.4c0,0,0,0,0-0.1c0,0,0,0,0-0.1l-3.8-12.4c-0.1-0.4-0.4-0.5-0.9-0.5
		c-0.5,0-0.8,0.2-0.9,0.5l-3.8,12.3c0,0.1,0,0.1,0,0.1C84.4,60.5,84.5,60.6,84.7,60.8z M89.2,49.6l2.1,7h-4.1L89.2,49.6z"/>
	<path fill="#FFFFFF" d="M94,48.8h3v11.6c0,0.2,0.1,0.3,0.2,0.4c0.2,0.1,0.3,0.1,0.5,0.1c0.2,0,0.4,0,0.5-0.1
		c0.2-0.1,0.2-0.2,0.2-0.4V48.8h3c0.2,0,0.3-0.1,0.4-0.2c0.1-0.1,0.1-0.3,0.1-0.5c0-0.2,0-0.3-0.1-0.5c-0.1-0.1-0.2-0.2-0.4-0.2H94
		c-0.2,0-0.3,0.1-0.4,0.2c-0.1,0.1-0.1,0.3-0.1,0.5c0,0.2,0,0.4,0.1,0.5C93.7,48.7,93.9,48.8,94,48.8z"/>
	<path fill="#FFFFFF" d="M104.5,61c0.2,0,0.4,0,0.5-0.1c0.2-0.1,0.2-0.2,0.2-0.4V47.9c0-0.2-0.1-0.3-0.2-0.4
		c-0.2-0.1-0.3-0.1-0.5-0.1s-0.4,0-0.5,0.1c-0.2,0.1-0.2,0.2-0.2,0.4v12.5c0,0.2,0.1,0.3,0.2,0.4C104.1,60.9,104.3,61,104.5,61z"/>
	<path fill="#FFFFFF" d="M111.8,61.1c1.2,0,2.2-0.3,2.9-1s1.1-1.7,1.1-3.1v-5.6c0-1.4-0.4-2.4-1.1-3.1s-1.7-1-2.9-1s-2.2,0.3-2.9,1
		s-1.1,1.7-1.1,3.1V57c0,1.4,0.4,2.4,1.1,3.1S110.5,61.1,111.8,61.1z M109.3,51.4c0-1.8,0.8-2.6,2.4-2.6c0.8,0,1.4,0.2,1.8,0.7
		c0.4,0.4,0.6,1.1,0.6,2V57c0,0.9-0.2,1.5-0.6,2c-0.4,0.4-1,0.7-1.8,0.7c-1.6,0-2.4-0.9-2.4-2.6V51.4z"/>
	<path fill="#FFFFFF" d="M119,61c0.2,0,0.4,0,0.5-0.1c0.2-0.1,0.2-0.2,0.2-0.4v-9.5l4.8,9.3c0.3,0.5,0.6,0.7,1,0.7
		c0.2,0,0.4,0,0.5-0.1c0.2-0.1,0.2-0.2,0.2-0.4V47.9c0-0.2-0.1-0.3-0.2-0.4c-0.2-0.1-0.3-0.1-0.5-0.1s-0.4,0-0.5,0.1
		c-0.2,0.1-0.2,0.2-0.2,0.4v9.5l-4.6-9c-0.2-0.3-0.3-0.6-0.5-0.8c-0.2-0.2-0.4-0.2-0.7-0.2c-0.5,0-0.8,0.2-0.8,0.5v12.5
		c0,0.2,0.1,0.3,0.2,0.4C118.6,60.9,118.8,61,119,61z"/>
	<polygon fill="#FFFFFF" points="95.7,75.5 91.8,72 91.4,71.4 88.3,71.3 79.9,73.8 78.9,71 78.8,70.5 75,69.3 73.2,70 73.2,70 
		73.2,70 69.4,67.2 68.5,65.7 67.7,64.2 61.9,67.6 58.4,63.9 54.1,60.1 52.8,60.4 49.8,58.2 48.4,58.8 47.5,57.6 41,60.6 21.8,71 
		14.9,66.6 3.2,70.1 14.1,69.9 23.9,80.2 21.9,73.3 42.3,63.3 51.5,66.4 58.8,73.6 59,73.8 60.2,71.8 63.1,71.4 64.1,72.4 
		63.7,75.9 70.2,81.4 69.9,77.9 71.9,74.2 76.3,74 80.6,78.7 80.4,76.2 85.2,74.7 86.6,77.1 98.8,80.4 97,77.2 103.2,77.2 
		102.3,78.6 113.3,81.9 110.8,84.3 136.4,87.7 103.4,75.1 	"/>
</g>
<g>
	<path fill="#FFFFFF" d="M38.3,91.8v-3c0-0.3,0.1-0.6,0.4-0.9c0.2-0.2,0.5-0.4,0.9-0.4c0.1,0,0.2,0.1,0.2,0.2c0,0,0,0.1,0,0.1
		c0,0-0.1,0-0.1,0c-0.3,0-0.5,0.1-0.7,0.3c-0.2,0.2-0.2,0.4-0.2,0.6v3c0,0.3,0.1,0.5,0.3,0.6c0.2,0.1,0.4,0.2,0.6,0.2
		c0.1,0,0.1,0.1,0.1,0.2c0,0.1-0.1,0.2-0.2,0.2c-0.4,0-0.7-0.1-0.9-0.3C38.4,92.4,38.3,92.1,38.3,91.8z"/>
	<path fill="#FFFFFF" d="M40.3,92.6v-2.9c0-0.1,0.1-0.1,0.2-0.1c0,0,0.1,0,0.1,0c0,0,0,0.1,0,0.1V90c0.2-0.3,0.5-0.5,0.9-0.5
		c0.2,0,0.4,0.1,0.6,0.2c0.2,0.1,0.3,0.3,0.4,0.5c0.1-0.2,0.3-0.4,0.5-0.5c0.2-0.1,0.4-0.2,0.6-0.2c0.3,0,0.6,0.1,0.8,0.3
		c0.2,0.2,0.3,0.5,0.3,0.9v1.9c0,0,0,0.1-0.1,0.1c0,0-0.1,0-0.1,0c0,0-0.1,0-0.1,0c0,0,0-0.1,0-0.1v-1.9c0-0.3-0.1-0.5-0.3-0.7
		c-0.2-0.2-0.4-0.2-0.6-0.2c-0.2,0-0.4,0.1-0.6,0.3c-0.2,0.2-0.3,0.4-0.3,0.6v1.9c0,0.1-0.1,0.1-0.2,0.1c-0.1,0-0.2,0-0.2-0.1v-1.9
		c0-0.3-0.1-0.5-0.2-0.6c-0.2-0.2-0.4-0.3-0.6-0.3c-0.2,0-0.4,0.1-0.6,0.3c-0.2,0.2-0.3,0.4-0.3,0.7v1.9c0,0,0,0.1-0.1,0.1
		c0,0-0.1,0-0.1,0c0,0-0.1,0-0.1,0C40.3,92.7,40.3,92.7,40.3,92.6z"/>
	<path fill="#FFFFFF" d="M45.4,91.6v-0.8c0-0.3,0.1-0.6,0.4-0.9c0.2-0.2,0.5-0.4,0.9-0.4c0.3,0,0.6,0.1,0.9,0.4
		c0.3,0.2,0.4,0.5,0.4,0.9v0.8c0,0.3-0.1,0.6-0.4,0.9c-0.3,0.3-0.5,0.4-0.9,0.4c-0.3,0-0.6-0.1-0.9-0.4
		C45.6,92.2,45.4,91.9,45.4,91.6z M45.8,91.6c0,0.2,0.1,0.5,0.3,0.7c0.2,0.2,0.4,0.3,0.6,0.3s0.5-0.1,0.6-0.3
		c0.2-0.2,0.3-0.4,0.3-0.7v-0.8c0-0.2-0.1-0.5-0.3-0.6c-0.2-0.2-0.4-0.3-0.6-0.3s-0.5,0.1-0.6,0.3c-0.2,0.2-0.3,0.4-0.3,0.6V91.6z"
		/>
	<path fill="#FFFFFF" d="M48.7,91.6v-1.9c0,0,0-0.1,0.1-0.1c0,0,0.1,0,0.1,0c0,0,0.1,0,0.1,0c0,0,0.1,0.1,0.1,0.1v1.9
		c0,0.2,0.1,0.5,0.3,0.7c0.2,0.2,0.4,0.3,0.6,0.3s0.5-0.1,0.6-0.3c0.2-0.2,0.3-0.4,0.3-0.7v-1.9c0,0,0-0.1,0.1-0.1c0,0,0.1,0,0.1,0
		c0,0,0.1,0,0.1,0c0,0,0,0.1,0,0.1v1.9c0,0.3-0.1,0.6-0.4,0.9c-0.2,0.2-0.5,0.4-0.9,0.4c-0.3,0-0.6-0.1-0.9-0.4
		C48.8,92.2,48.7,91.9,48.7,91.6z"/>
	<path fill="#FFFFFF" d="M52.1,92.6v-2.9c0-0.1,0.1-0.1,0.2-0.1c0,0,0.1,0,0.1,0c0,0,0,0.1,0,0.1V90c0.1-0.1,0.2-0.3,0.4-0.4
		s0.3-0.2,0.6-0.2c0.3,0,0.6,0.1,0.9,0.4c0.2,0.2,0.4,0.5,0.4,0.9v1.9c0,0.1-0.1,0.2-0.2,0.2c-0.1,0-0.2-0.1-0.2-0.2v-1.9
		c0-0.2-0.1-0.5-0.3-0.6c-0.2-0.2-0.4-0.3-0.6-0.3c-0.2,0-0.4,0.1-0.6,0.3c-0.2,0.2-0.3,0.4-0.3,0.7v1.9c0,0,0,0.1-0.1,0.1
		c0,0-0.1,0-0.1,0c0,0-0.1,0-0.1,0C52.1,92.7,52.1,92.7,52.1,92.6z"/>
	<path fill="#FFFFFF" d="M55.4,91.8v-3.7c0,0,0-0.1,0.1-0.1c0,0,0.1,0,0.1,0c0,0,0.1,0,0.1,0c0,0,0.1,0.1,0.1,0.1v1.4h0.9
		c0,0,0.1,0,0.1,0c0,0,0,0.1,0,0.1c0,0,0,0.1,0,0.1s-0.1,0-0.1,0h-0.9v2c0,0.2,0.1,0.4,0.2,0.5c0.1,0.1,0.3,0.1,0.5,0.1h0.2
		c0,0,0.1,0,0.1,0c0,0,0,0.1,0,0.1c0,0,0,0.1,0,0.1c0,0-0.1,0-0.1,0h-0.2C55.7,92.8,55.4,92.5,55.4,91.8z"/>
	<path fill="#FFFFFF" d="M57.1,91.9c0-0.3,0.1-0.6,0.4-0.7s0.7-0.2,1.2-0.2h0.4v-0.2c0-0.3-0.1-0.5-0.2-0.7
		c-0.1-0.2-0.4-0.3-0.6-0.3c-0.2,0-0.3,0-0.5,0.1C57.6,90,57.5,90,57.5,90c0,0-0.1,0-0.1-0.1s0-0.1,0-0.1c0-0.1,0.1-0.1,0.3-0.2
		c0.2-0.1,0.4-0.1,0.6-0.1c0.4,0,0.7,0.1,0.9,0.4c0.2,0.2,0.3,0.6,0.3,0.9v1.8c0,0,0,0.1,0,0.1c0,0-0.1,0-0.1,0s-0.1,0-0.1,0
		c0,0,0-0.1,0-0.1v-0.3c-0.3,0.3-0.6,0.5-1,0.5c-0.3,0-0.5-0.1-0.7-0.2C57.2,92.5,57.1,92.2,57.1,91.9z M57.5,91.9
		c0,0.2,0.1,0.4,0.2,0.5c0.1,0.1,0.3,0.2,0.5,0.2c0.2,0,0.5-0.1,0.7-0.2c0.2-0.2,0.3-0.3,0.3-0.5v-0.5h-0.3c-0.2,0-0.4,0-0.5,0
		c-0.1,0-0.3,0-0.4,0.1c-0.1,0-0.2,0.1-0.3,0.2C57.5,91.7,57.5,91.8,57.5,91.9z"/>
	<path fill="#FFFFFF" d="M60.2,88.3c0-0.1,0-0.1,0.1-0.2c0,0,0.1-0.1,0.2-0.1c0.1,0,0.1,0,0.2,0.1c0,0,0.1,0.1,0.1,0.2
		c0,0.1,0,0.1-0.1,0.2c-0.1,0.1-0.1,0.1-0.2,0.1c-0.1,0-0.1,0-0.2-0.1C60.2,88.4,60.2,88.4,60.2,88.3z M60.3,92.6v-2.9
		c0-0.1,0.1-0.1,0.2-0.1c0.1,0,0.2,0,0.2,0.1v2.9c0,0,0,0.1-0.1,0.1c0,0-0.1,0-0.1,0c0,0-0.1,0-0.1,0C60.3,92.7,60.3,92.7,60.3,92.6
		z"/>
	<path fill="#FFFFFF" d="M61.5,92.6v-2.9c0-0.1,0.1-0.1,0.2-0.1c0,0,0.1,0,0.1,0c0,0,0,0.1,0,0.1V90c0.1-0.1,0.2-0.3,0.4-0.4
		s0.3-0.2,0.6-0.2c0.3,0,0.6,0.1,0.9,0.4c0.2,0.2,0.4,0.5,0.4,0.9v1.9c0,0.1-0.1,0.2-0.2,0.2c-0.1,0-0.2-0.1-0.2-0.2v-1.9
		c0-0.2-0.1-0.5-0.3-0.6c-0.2-0.2-0.4-0.3-0.6-0.3c-0.2,0-0.4,0.1-0.6,0.3c-0.2,0.2-0.3,0.4-0.3,0.7v1.9c0,0,0,0.1-0.1,0.1
		c0,0-0.1,0-0.1,0c0,0-0.1,0-0.1,0C61.6,92.7,61.5,92.7,61.5,92.6z"/>
	<path fill="#FFFFFF" d="M64.7,92.4c0,0,0-0.1,0-0.1c0,0,0.1-0.1,0.1-0.1c0,0,0.1,0,0.1,0l0.2,0.1c0.1,0,0.1,0.1,0.3,0.1
		c0.1,0,0.2,0.1,0.4,0.1c0.3,0,0.4,0,0.6-0.1c0.1-0.1,0.2-0.2,0.2-0.4c0-0.2-0.1-0.3-0.2-0.4c-0.1-0.1-0.3-0.2-0.4-0.2
		s-0.3-0.1-0.5-0.2c-0.2-0.1-0.3-0.1-0.4-0.3c-0.1-0.1-0.2-0.3-0.2-0.5c0-0.2,0.1-0.4,0.3-0.6c0.2-0.2,0.4-0.3,0.8-0.3
		c0.2,0,0.4,0,0.6,0.1c0.2,0.1,0.3,0.1,0.3,0.2c0,0,0,0.1,0,0.1c0,0-0.1,0.1-0.1,0.1c0,0-0.1,0-0.2-0.1c-0.2-0.1-0.3-0.1-0.5-0.1
		c-0.2,0-0.4,0.1-0.6,0.2c-0.1,0.1-0.2,0.3-0.2,0.4c0,0.2,0.1,0.3,0.2,0.4c0.1,0.1,0.3,0.2,0.4,0.2c0.2,0.1,0.3,0.1,0.5,0.2
		c0.2,0.1,0.3,0.1,0.4,0.3c0.1,0.1,0.2,0.3,0.2,0.6c0,0.3-0.1,0.5-0.3,0.6c-0.2,0.2-0.4,0.2-0.8,0.2c-0.3,0-0.5-0.1-0.7-0.2
		C64.8,92.6,64.7,92.5,64.7,92.4z"/>
	<path fill="#FFFFFF" d="M68.8,92.6v-2.9c0-0.1,0.1-0.1,0.2-0.1c0,0,0.1,0,0.1,0c0,0,0,0.1,0,0.1V90c0.1-0.1,0.2-0.3,0.4-0.4
		c0.2-0.1,0.3-0.2,0.6-0.2c0.3,0,0.6,0.1,0.9,0.4c0.2,0.2,0.4,0.5,0.4,0.9v1.9c0,0.1-0.1,0.2-0.2,0.2c-0.1,0-0.2-0.1-0.2-0.2v-1.9
		c0-0.2-0.1-0.5-0.3-0.6c-0.2-0.2-0.4-0.3-0.6-0.3c-0.2,0-0.4,0.1-0.6,0.3c-0.2,0.2-0.3,0.4-0.3,0.7v1.9c0,0,0,0.1-0.1,0.1
		c0,0-0.1,0-0.1,0c0,0-0.1,0-0.1,0C68.9,92.7,68.8,92.7,68.8,92.6z"/>
	<path fill="#FFFFFF" d="M72,91.6v-0.8c0-0.3,0.1-0.6,0.4-0.9c0.2-0.2,0.5-0.4,0.9-0.4c0.3,0,0.6,0.1,0.9,0.4
		c0.3,0.2,0.4,0.5,0.4,0.9v0.8c0,0.3-0.1,0.6-0.4,0.9c-0.3,0.3-0.5,0.4-0.9,0.4s-0.6-0.1-0.9-0.4C72.2,92.2,72,91.9,72,91.6z
		 M72.4,91.6c0,0.2,0.1,0.5,0.3,0.7c0.2,0.2,0.4,0.3,0.6,0.3c0.3,0,0.5-0.1,0.6-0.3c0.2-0.2,0.3-0.4,0.3-0.7v-0.8
		c0-0.2-0.1-0.5-0.3-0.6c-0.2-0.2-0.4-0.3-0.6-0.3c-0.3,0-0.5,0.1-0.6,0.3c-0.2,0.2-0.3,0.4-0.3,0.6V91.6z"/>
	<path fill="#FFFFFF" d="M75.3,91.8v-3.7c0,0,0-0.1,0.1-0.1c0,0,0.1,0,0.1,0c0,0,0.1,0,0.1,0c0,0,0.1,0.1,0.1,0.1v1.4h0.9
		c0,0,0.1,0,0.1,0c0,0,0,0.1,0,0.1c0,0,0,0.1,0,0.1s-0.1,0-0.1,0h-0.9v2c0,0.2,0.1,0.4,0.2,0.5c0.1,0.1,0.3,0.1,0.5,0.1h0.2
		c0,0,0.1,0,0.1,0c0,0,0,0.1,0,0.1c0,0,0,0.1,0,0.1c0,0-0.1,0-0.1,0h-0.2C75.7,92.8,75.3,92.5,75.3,91.8z"/>
	<path fill="#FFFFFF" d="M78.5,88.3c0-0.1,0-0.1,0.1-0.2c0,0,0.1-0.1,0.2-0.1c0.1,0,0.1,0,0.2,0.1c0,0,0.1,0.1,0.1,0.2
		c0,0.1,0,0.1-0.1,0.2c-0.1,0.1-0.1,0.1-0.2,0.1c-0.1,0-0.1,0-0.2-0.1C78.6,88.4,78.5,88.4,78.5,88.3z M78.6,92.6v-2.9
		c0-0.1,0.1-0.1,0.2-0.1c0.1,0,0.2,0,0.2,0.1v2.9c0,0,0,0.1-0.1,0.1c0,0-0.1,0-0.1,0c0,0-0.1,0-0.1,0C78.7,92.7,78.6,92.7,78.6,92.6
		z"/>
	<path fill="#FFFFFF" d="M79.9,92.6v-2.9c0-0.1,0.1-0.1,0.2-0.1c0,0,0.1,0,0.1,0c0,0,0,0.1,0,0.1V90c0.1-0.1,0.2-0.3,0.4-0.4
		c0.2-0.1,0.3-0.2,0.6-0.2c0.3,0,0.6,0.1,0.9,0.4c0.2,0.2,0.4,0.5,0.4,0.9v1.9c0,0.1-0.1,0.2-0.2,0.2c-0.1,0-0.2-0.1-0.2-0.2v-1.9
		c0-0.2-0.1-0.5-0.3-0.6c-0.2-0.2-0.4-0.3-0.6-0.3c-0.2,0-0.4,0.1-0.6,0.3c-0.2,0.2-0.3,0.4-0.3,0.7v1.9c0,0,0,0.1-0.1,0.1
		c0,0-0.1,0-0.1,0s-0.1,0-0.1,0C79.9,92.7,79.9,92.7,79.9,92.6z"/>
	<path fill="#FFFFFF" d="M83.1,91.6v-0.8c0-0.4,0.1-0.7,0.3-0.9c0.2-0.2,0.5-0.4,1-0.4c0.3,0,0.5,0,0.7,0.1c0.2,0.1,0.3,0.2,0.3,0.3
		c0,0,0,0.1,0,0.1c0,0-0.1,0.1-0.1,0.1c0,0-0.1,0-0.1-0.1c-0.1,0-0.1-0.1-0.3-0.1c-0.1,0-0.2-0.1-0.4-0.1c-0.3,0-0.5,0.1-0.7,0.3
		c-0.2,0.2-0.3,0.4-0.3,0.7v0.8c0,0.3,0.1,0.5,0.2,0.7c0.2,0.2,0.4,0.3,0.7,0.3c0.2,0,0.3,0,0.4-0.1c0.1,0,0.2-0.1,0.3-0.1
		c0.1,0,0.1-0.1,0.1-0.1c0,0,0.1,0,0.1,0.1c0,0,0,0.1,0,0.1c0,0.1-0.1,0.2-0.3,0.3c-0.2,0.1-0.4,0.1-0.7,0.1c-0.4,0-0.7-0.1-1-0.3
		C83.2,92.3,83.1,92,83.1,91.6z"/>
	<path fill="#FFFFFF" d="M86,92.6v-4.9c0,0,0-0.1,0-0.1c0,0,0.1,0,0.1,0c0.1,0,0.1,0,0.1,0c0,0,0,0.1,0,0.1v4.9c0,0,0,0.1-0.1,0.1
		c0,0-0.1,0-0.1,0s-0.1,0-0.1,0C86.1,92.7,86,92.7,86,92.6z"/>
	<path fill="#FFFFFF" d="M87.3,91.6v-1.9c0,0,0-0.1,0.1-0.1c0,0,0.1,0,0.1,0c0,0,0.1,0,0.1,0c0,0,0.1,0.1,0.1,0.1v1.9
		c0,0.2,0.1,0.5,0.3,0.7c0.2,0.2,0.4,0.3,0.6,0.3c0.3,0,0.5-0.1,0.6-0.3c0.2-0.2,0.3-0.4,0.3-0.7v-1.9c0,0,0-0.1,0.1-0.1
		c0,0,0.1,0,0.1,0s0.1,0,0.1,0c0,0,0,0.1,0,0.1v1.9c0,0.3-0.1,0.6-0.4,0.9c-0.2,0.2-0.5,0.4-0.9,0.4c-0.3,0-0.6-0.1-0.9-0.4
		C87.4,92.2,87.3,91.9,87.3,91.6z"/>
	<path fill="#FFFFFF" d="M90.6,91.6v-0.8c0-0.3,0.1-0.6,0.4-0.9c0.2-0.2,0.5-0.4,0.9-0.4c0.2,0,0.4,0,0.6,0.1
		c0.2,0.1,0.3,0.2,0.4,0.4v-2.3c0,0,0-0.1,0-0.1c0,0,0.1,0,0.1,0c0,0,0.1,0,0.1,0c0,0,0,0.1,0,0.1v4.9c0,0,0,0.1,0,0.1
		c0,0-0.1,0-0.1,0c0,0-0.1,0-0.1,0c0,0,0-0.1,0-0.1v-0.3c-0.1,0.1-0.2,0.3-0.4,0.4c-0.2,0.1-0.4,0.2-0.6,0.2c-0.3,0-0.6-0.1-0.9-0.4
		C90.7,92.2,90.6,91.9,90.6,91.6z M90.9,91.6c0,0.2,0.1,0.5,0.3,0.7c0.2,0.2,0.4,0.3,0.6,0.3c0.2,0,0.4-0.1,0.6-0.3
		c0.2-0.2,0.3-0.3,0.3-0.5v-1c0-0.3-0.1-0.5-0.3-0.7c-0.2-0.2-0.4-0.3-0.6-0.3c-0.2,0-0.5,0.1-0.6,0.3c-0.2,0.2-0.3,0.4-0.3,0.6
		V91.6z"/>
	<path fill="#FFFFFF" d="M93.8,91.6v-0.8c0-0.3,0.1-0.6,0.4-0.9c0.2-0.2,0.5-0.4,0.9-0.4c0.3,0,0.6,0.1,0.9,0.4
		c0.2,0.2,0.4,0.5,0.4,0.9c0,0.1,0,0.2,0,0.3c0,0.1-0.1,0.1-0.1,0.2c-0.1,0-0.1,0.1-0.2,0.1c-0.1,0-0.1,0-0.2,0h-1.6v0.3
		c0,0.3,0.1,0.5,0.3,0.7c0.2,0.2,0.5,0.3,0.8,0.3c0.2,0,0.3,0,0.4-0.1c0.1,0,0.2-0.1,0.3-0.1c0.1,0,0.1-0.1,0.1-0.1
		c0,0,0.1,0,0.1,0.1c0,0,0,0.1,0,0.1c0,0.1-0.1,0.2-0.3,0.3c-0.2,0.1-0.4,0.1-0.7,0.1c-0.4,0-0.8-0.1-1-0.3
		C93.9,92.3,93.8,92,93.8,91.6z M94.2,91h1.5c0.2,0,0.3,0,0.3,0c0.1,0,0.1-0.1,0.1-0.2c0-0.2-0.1-0.5-0.3-0.6
		c-0.2-0.2-0.4-0.3-0.7-0.3c-0.3,0-0.5,0.1-0.7,0.3s-0.3,0.4-0.3,0.6V91z"/>
	<path fill="#FFFFFF" d="M96.9,91.6v-0.8c0-0.3,0.1-0.6,0.4-0.9c0.2-0.2,0.5-0.4,0.9-0.4c0.2,0,0.4,0,0.6,0.1
		c0.2,0.1,0.3,0.2,0.4,0.4v-2.3c0,0,0-0.1,0-0.1c0,0,0.1,0,0.1,0c0,0,0.1,0,0.1,0c0,0,0,0.1,0,0.1v4.9c0,0,0,0.1,0,0.1
		c0,0-0.1,0-0.1,0c0,0-0.1,0-0.1,0c0,0,0-0.1,0-0.1v-0.3c-0.1,0.1-0.2,0.3-0.4,0.4c-0.2,0.1-0.4,0.2-0.6,0.2c-0.3,0-0.6-0.1-0.9-0.4
		C97,92.2,96.9,91.9,96.9,91.6z M97.2,91.6c0,0.2,0.1,0.5,0.3,0.7c0.2,0.2,0.4,0.3,0.6,0.3c0.2,0,0.4-0.1,0.6-0.3
		c0.2-0.2,0.3-0.3,0.3-0.5v-1c0-0.3-0.1-0.5-0.3-0.7c-0.2-0.2-0.4-0.3-0.6-0.3c-0.2,0-0.5,0.1-0.6,0.3c-0.2,0.2-0.3,0.4-0.3,0.6
		V91.6z"/>
	<path fill="#FFFFFF" d="M100,92.8c0-0.1,0-0.2,0.1-0.2c0.3,0,0.5-0.1,0.6-0.2c0.2-0.1,0.3-0.3,0.3-0.6v-3c0-0.2-0.1-0.5-0.2-0.6
		c-0.2-0.2-0.4-0.3-0.7-0.3c0,0-0.1,0-0.1,0c0,0,0-0.1,0-0.1c0,0,0-0.1,0-0.1c0,0,0.1,0,0.1,0c0.3,0,0.6,0.1,0.9,0.4
		c0.2,0.2,0.4,0.5,0.4,0.9v3c0,0.4-0.1,0.6-0.3,0.8c-0.2,0.2-0.5,0.3-0.9,0.3C100,92.9,100,92.9,100,92.8z"/>
</g>
</svg>
