<?xml version="1.0" encoding="utf-8"?>
<!-- Generator: Adobe Illustrator 17.1.0, SVG Export Plug-In . SVG Version: 6.00 Build 0)  -->
<!DOCTYPE svg PUBLIC "-//W3C//DTD SVG 1.0//EN" "http://www.w3.org/TR/2001/REC-SVG-20010904/DTD/svg10.dtd">
<svg version="1.0" id="Layer_2" xmlns="http://www.w3.org/2000/svg" xmlns:xlink="http://www.w3.org/1999/xlink" x="0px" y="0px"
	 viewBox="0 0 910 528" enable-background="new 0 0 910 528" xml:space="preserve">
<g>
	<g>
		<path fill="#F9F4F2" d="M22.5,240.7H10.8l8.8-32.7h-15v-11.1h18l9.1-33.9H4.6v-11.1h30.1l9.3-34.5h11.4l-9,34.5h29.9l9.3-34.5
			h11.8l-9.4,34.5h15.1V163H85.1l-9.2,33.9h27.3V208H72.8L64,240.7H52.2l8.9-32.7H31.3L22.5,240.7z M34.3,196.9h29.8l9.2-33.9H43.4
			L34.3,196.9z"/>
		<path fill="#F9F4F2" d="M177.6,227.2c0,1.1,0.1,1.9,0.4,2.4c0.3,0.5,0.7,0.8,1.3,1.2c0.9,0.7,1.9,1.6,2.9,2.9
			c1.1,1.2,1.6,2.9,1.6,5.1v2h-25.8v-2c0-2.1,0.5-3.8,1.6-5.1c1.1-1.2,2-2.2,2.9-2.9c0.6-0.3,1-0.7,1.3-1.2c0.3-0.4,0.5-1.2,0.5-2.4
			v-44.5c0-0.8-0.3-1.4-0.8-1.8c-0.5-0.4-1.1-0.6-1.8-0.6h-27.5c-1.6,0-2.4,0.8-2.4,2.4v45.6c0,0.7,0.2,1.2,0.5,1.5
			c0.3,0.3,0.7,0.6,1.2,0.8c0.9,0.6,1.9,1.5,2.9,2.8c1.1,1.3,1.6,3,1.6,5.1v2h-25.8v-2c0-2.1,0.5-3.8,1.6-5.1c1.1-1.2,2-2.2,2.9-2.9
			c0.6-0.3,1-0.7,1.3-1.2c0.3-0.4,0.4-1.2,0.4-2.4v-100c-0.1-0.7-0.3-1.2-0.6-1.6c-0.3-0.4-0.6-0.8-1.1-1.1
			c-0.9-0.6-1.9-1.5-2.9-2.7c-1.1-1.2-1.6-2.9-1.6-5.1v-2h0.5h24.8h0.5v2c0,2.1-0.5,3.8-1.6,5.1c-1.1,1.2-2.1,2.1-2.9,2.7
			c-0.5,0.3-0.8,0.7-1.2,1.2c-0.3,0.5-0.5,1.1-0.5,2v39.6c0,1.6,0.6,2.4,1.9,2.4h28.1c1.6,0,2.4-0.8,2.4-2.4v-39.9
			c-0.1-0.8-0.3-1.4-0.7-1.8c-0.3-0.4-0.7-0.8-1.2-1.1c-0.9-0.6-1.9-1.5-2.9-2.7c-1-1.2-1.5-2.9-1.5-5.1v-2h25.6v2
			c0,2.1-0.5,3.8-1.6,5.1c-1.1,1.2-2.1,2.1-2.9,2.7c-0.6,0.5-1,0.9-1.3,1.3c-0.3,0.5-0.4,1.2-0.4,2.4v1V227.2z"/>
		<path fill="#F9F4F2" d="M261,114.7v1.7c0,2-0.5,3.8-1.6,5.3c-1.1,1.5-2.3,2.6-3.6,3.3c-0.5,0.2-0.8,0.4-0.9,0.5
			c-0.2,0.1-0.4,0.6-0.8,1.5c-0.1,0.2-0.5,1.3-1.1,3.2c-0.6,1.9-1.4,4.4-2.4,7.3c-1,3-2,6.3-3.3,10.1c-1.2,3.8-2.5,7.6-3.9,11.4
			c-3,9.1-6.5,19.4-10.3,30.8v38.1c0.1,0.9,0.3,1.5,0.6,1.9c0.3,0.4,0.6,0.8,1.1,1.1c0.9,0.6,1.9,1.5,2.9,2.8c1.1,1.3,1.6,3,1.6,5.1
			v1.9h-0.8h-24.1h-0.7v-1.9c0-2.1,0.5-3.8,1.5-5.1c1-1.3,2-2.2,2.9-2.8c0.6-0.3,1-0.7,1.3-1.2c0.3-0.4,0.5-1.1,0.6-2v-1.5V190
			c-4.2-11.6-7.9-21.9-11.3-31.2c-1.5-3.9-2.9-7.8-4.2-11.5c-1.3-3.8-2.6-7.2-3.7-10.2c-1.1-3-2-5.5-2.7-7.4c-0.7-1.9-1-3-1-3.2
			c-0.3-1.2-0.8-2.1-1.5-2.5c-0.9-0.6-1.9-1.5-2.9-2.7c-1-1.2-1.5-2.9-1.5-4.9v-1.7h25.4v2.4c0,2-0.5,3.6-1.4,4.8
			c-1,1.2-1.9,2-2.8,2.6c-0.6,0.5-1,0.9-1.3,1.3c-0.3,0.5-0.4,1.1-0.2,2c0,0.2,0.3,1,0.8,2.4c0.5,1.4,1.1,3.2,1.9,5.3
			c0.7,2.1,1.5,4.5,2.4,7.2c0.9,2.6,1.8,5.3,2.7,8c2.1,6.3,4.5,13.4,7.2,21.2h0.3c2.8-8.1,5.3-15.3,7.4-21.7
			c0.9-2.7,1.8-5.4,2.7-8.1c0.9-2.7,1.7-5.1,2.5-7.2c0.8-2.1,1.4-3.9,1.9-5.3c0.4-1.4,0.7-2.2,0.8-2.4c0.2-0.9,0-1.6-0.8-2
			c-0.7-0.4-1.4-0.8-1.9-1.2c-0.9-0.6-1.7-1.5-2.5-2.7c-0.8-1.2-1.2-2.9-1.2-4.9v-1.7H261z"/>
		<path fill="#F9F4F2" d="M300.6,114.7c5.4,0,9.8,0.8,13.3,2.4c3.5,1.6,6.3,3.8,8.3,6.4c2.1,2.6,3.5,5.6,4.4,8.8
			c0.8,3.3,1.3,6.5,1.3,9.8v15.2c0,10.1-2,17.5-6.1,22.1c-4.1,4.7-11,7-20.6,7h-11.3c-1.2,0-1.9,0.7-1.9,2v38.7
			c0,1.1,0.1,1.9,0.4,2.4c0.3,0.5,0.7,0.8,1.3,1.2c0.9,0.7,1.9,1.6,2.9,2.9c1,1.2,1.5,2.9,1.5,5.1v2h-25.6v-2c0-2.1,0.5-3.8,1.5-5.1
			c1-1.2,2-2.2,2.9-2.9c0.6-0.3,1-0.7,1.3-1.2c0.3-0.4,0.5-1.2,0.5-2.4v-98.4c0-1.8-0.2-2.9-0.7-3.5c-0.4-0.5-1-1-1.7-1.4
			c-1-0.6-1.8-1.4-2.4-2.5c-0.6-1.1-0.8-2.8-0.8-5.1v-1.7H300.6z M314.7,141.8c0-2-0.3-4-0.8-5.9c-0.6-1.9-1.4-3.6-2.4-5.2
			c-1.1-1.6-2.3-2.8-3.8-3.8c-1.5-1-3.1-1.4-4.9-1.4H290c-1.3,0-2,0.7-2,2v45.8c0,1.2,0.6,1.9,1.9,1.9h13c3.6,0,6.5-1.2,8.7-3.5
			s3.3-5.5,3.3-9.4V141.8z"/>
		<path fill="#F9F4F2" d="M355.6,126.1c-0.5,0.5-0.7,1-0.7,1.6v39.6c0,1.6,0.8,2.4,2.4,2.4h23.7c0.6,0,1.1,0.2,1.7,0.6
			c0.6,0.4,0.8,1,0.8,1.9v6.1c0,1.6-0.8,2.4-2.5,2.4h-23.7c-1.6,0-2.4,0.8-2.4,2.4V228c0,1.6,0.6,2.4,1.9,2.4h24.1
			c0.7,0,1.2-0.3,1.7-0.8c0.4-0.5,0.7-1,0.7-1.6c0-2.2,0.8-4.2,2.3-5.9s3.6-2.5,6.1-2.5h2.2v16.8c0,2.8-1.4,4.2-4.2,4.2h-10.3H346
			h-11.6v-2.4c0-2.5,0.6-4.1,1.8-5c1.2-0.8,2.3-1.5,3.5-2.1c0.6-0.2,1-0.7,1.4-1.4c0.4-0.7,0.6-1.4,0.6-2.1V127.3
			c0-1-0.2-1.7-0.6-2.2c-0.4-0.4-0.9-0.8-1.6-1c-1.1-0.6-2.2-1.4-3.4-2.4c-1.1-1.1-1.7-2.7-1.7-4.8v-2.2h55.2c1.3,0,2.4,0.4,3.1,1.2
			c0.7,0.8,1.1,1.6,1.1,2.5v17.3h-2c-2.4,0-4.4-0.8-6-2.5c-1.6-1.7-2.4-3.6-2.4-5.9c0-1.3-1-2-2.9-2h-23.4
			C356.6,125.3,356.1,125.6,355.6,126.1z"/>
		<path fill="#F9F4F2" d="M467,227.2c0,1.1,0.1,1.9,0.4,2.4c0.3,0.5,0.7,0.8,1.3,1.2c0.9,0.7,1.9,1.6,2.9,2.9
			c1.1,1.2,1.6,2.9,1.6,5.1v2h-25.8v-2c0-2.1,0.5-3.8,1.6-5.1c1.1-1.2,2-2.2,2.9-2.9c0.6-0.3,1-0.7,1.3-1.2c0.3-0.4,0.5-1.2,0.5-2.4
			v-44.5c0-0.8-0.3-1.4-0.8-1.8c-0.5-0.4-1.1-0.6-1.8-0.6h-27.5c-1.6,0-2.4,0.8-2.4,2.4v45.6c0,0.7,0.2,1.2,0.5,1.5
			c0.3,0.3,0.7,0.6,1.2,0.8c0.9,0.6,1.9,1.5,2.9,2.8c1.1,1.3,1.6,3,1.6,5.1v2h-25.8v-2c0-2.1,0.5-3.8,1.6-5.1c1.1-1.2,2-2.2,2.9-2.9
			c0.6-0.3,1-0.7,1.3-1.2c0.3-0.4,0.4-1.2,0.4-2.4v-100c-0.1-0.7-0.3-1.2-0.6-1.6c-0.3-0.4-0.6-0.8-1.1-1.1
			c-0.9-0.6-1.9-1.5-2.9-2.7c-1.1-1.2-1.6-2.9-1.6-5.1v-2h0.5h24.8h0.5v2c0,2.1-0.5,3.8-1.6,5.1c-1.1,1.2-2.1,2.1-2.9,2.7
			c-0.5,0.3-0.8,0.7-1.2,1.2c-0.3,0.5-0.5,1.1-0.5,2v39.6c0,1.6,0.6,2.4,1.9,2.4h28.1c1.6,0,2.4-0.8,2.4-2.4v-39.9
			c-0.1-0.8-0.3-1.4-0.7-1.8c-0.3-0.4-0.7-0.8-1.2-1.1c-0.9-0.6-1.9-1.5-2.9-2.7c-1-1.2-1.5-2.9-1.5-5.1v-2h25.6v2
			c0,2.1-0.5,3.8-1.6,5.1c-1.1,1.2-2,2.1-2.9,2.7c-0.6,0.5-1,0.9-1.3,1.3c-0.3,0.5-0.4,1.2-0.4,2.4v1V227.2z"/>
		<path fill="#F9F4F2" d="M548.8,230.9c0.9,0.6,1.7,1.5,2.5,2.7c0.8,1.2,1.2,2.8,1.2,4.7v2.4h-24.6v-2.5c0-2,0.5-3.5,1.4-4.5
			c1-1,1.9-1.7,2.8-2.3c1-0.7,1.5-2.1,1.5-4.2c-0.5-2.9-0.9-5.6-1.3-8.1c-0.3-2.1-0.6-4.1-0.9-6c-0.3-1.9-0.5-3.1-0.6-3.6
			c-0.2-1.3-0.6-2.1-1.1-2.4c-0.5-0.2-1.3-0.3-2.3-0.3h-21.6c-2,0-3.1,1-3.2,2.9c-0.1,0.6-0.3,1.8-0.5,3.7c-0.2,1.9-0.5,3.9-0.7,5.9
			c-0.3,2.5-0.7,5.1-1,7.9c0,1.1,0.1,1.9,0.3,2.4c0.2,0.5,0.6,0.9,1.2,1.3c0.8,0.6,1.6,1.3,2.4,2.4c0.8,1,1.2,2.5,1.2,4.5v2.9h-24.1
			v-2.9c0-1.9,0.4-3.3,1.2-4.2c0.8-0.9,1.6-1.6,2.5-2.2c0.9-0.6,1.5-1.3,1.8-2.1c0.3-0.8,0.5-1.7,0.8-2.6c3.1-18.2,6-34.5,8.6-48.8
			c1.1-6.1,2.2-12,3.2-17.9c1-5.9,1.9-11.1,2.8-15.7c0.8-4.6,1.5-8.3,2-11.2c0.5-2.9,0.8-4.3,0.8-4.5c0.1-0.9,0.2-1.7,0.3-2.4
			c0.1-0.7-0.4-1.2-1.5-1.5c-1.2-0.6-2.1-1.4-2.5-2.4c-0.4-1.1-0.7-2.8-0.7-5.3v-2.2h18c2.6,0,4.6,0.8,6.1,2.4
			c1.5,1.6,2.4,3.5,2.8,5.5c0,0.5,0.3,2.3,0.8,5.5c0.6,3.2,1.3,7.3,2.2,12.2c0.9,4.9,1.9,10.5,3,16.8c1.1,6.2,2.3,12.5,3.5,18.9
			c2.8,15.2,6,32.2,9.4,51c0.2,0.9,0.4,1.6,0.7,2.2C547.5,229.8,548,230.3,548.8,230.9z M525.9,195.7c0.9,0,1.5-0.3,1.9-0.8
			c0.4-0.6,0.5-1.2,0.4-1.9c0-0.1-0.2-1.1-0.5-3c-0.3-1.9-0.8-4.4-1.3-7.4c-0.5-3-1.1-6.4-1.7-10.2c-0.6-3.8-1.3-7.6-1.9-11.5
			c-1.6-9.2-3.3-19.6-5.2-31.2c0-0.1-0.1-0.3-0.2-0.5l-0.5-0.5c-0.1,0-0.3,0.2-0.7,0.5c-0.1,0.2-0.2,0.4-0.2,0.5l-5.4,31.3
			c-0.7,3.9-1.3,7.8-2,11.5c-0.7,3.8-1.3,7.2-1.8,10.2c-0.5,3-0.9,5.5-1.3,7.4c-0.3,1.9-0.5,2.9-0.5,3c-0.1,0.7,0,1.3,0.4,1.8
			c0.4,0.5,1,0.8,1.8,0.8H525.9z"/>
		<path fill="#F9F4F2" d="M621.9,230.4c1.2,0.6,2.1,1.3,2.5,2.1c0.4,0.8,0.7,2.3,0.7,4.3v3.9h-9.3c-2.9,0-5.1-1.1-6.6-3.2
			c-1.5-2.1-2.2-4.4-2.2-6.9v-31c0-3.9-1.2-7.2-3.6-9.9c-2.4-2.7-5.4-4-8.8-4h-14.5c-1.5,0-2.2,0.7-2.2,2.2v38.4v1.2
			c0,1,0.1,1.8,0.4,2.3c0.3,0.5,0.7,0.9,1.3,1.3c0.9,0.6,1.9,1.5,2.9,2.8c1.1,1.3,1.6,3,1.6,5.1v1.9h-25.1v-1.9
			c0-2.1,0.5-3.8,1.6-5.1c1.1-1.3,2-2.2,2.9-2.8c0.6-0.3,1-0.7,1.3-1.2c0.3-0.4,0.4-1.2,0.4-2.2c0-15.5,0-28.7,0-39.5
			c0-10.8,0-19.9,0-27.1s0-12.9,0-17.1c0-4.2,0-7.4,0-9.6c0-2.2,0-3.8,0-4.6c0-0.8,0-1.5,0-2.1c0-1.5-0.5-2.6-1.5-3.4
			c-0.9-0.6-1.9-1.5-2.9-2.7c-1.1-1.2-1.6-3-1.6-5.2v-1.5h33.7c4.7,0,8.8,0.7,12.2,2c3.4,1.3,6.2,3.3,8.3,5.7
			c2.1,2.5,3.7,5.4,4.7,8.9c1,3.5,1.5,7.3,1.5,11.5v17.7c0,4.5-0.9,8.3-2.7,11.3c-1.8,3-3.8,5.5-6.1,7.4c2.6,1.9,4.7,4.7,6.3,8.4
			c1.6,3.7,2.4,7.9,2.4,12.6v27.1c0,1,0.2,1.7,0.7,1.9C620.8,229.6,621.3,229.9,621.9,230.4z M607.1,139.8c0-3.9-1.2-7.3-3.5-10.2
			c-2.4-2.9-5.3-4.3-8.8-4.3h-14.3c-0.7,0-1.3,0.2-1.8,0.5c-0.5,0.3-0.8,1-0.8,1.9v45.5c0,0.6,0.2,1,0.7,1.3
			c0.4,0.3,0.9,0.5,1.3,0.5h14.7c3.5,0,6.4-1.2,8.8-3.5c2.4-2.4,3.6-5.5,3.6-9.4V139.8z"/>
		<path fill="#F9F4F2" d="M699.2,114.5v1.7c0,1.9-0.4,3.5-1.2,4.7c-0.8,1.2-1.6,2.1-2.5,2.7c-0.6,0.4-1.1,0.9-1.5,1.4
			c-0.4,0.5-0.8,1.2-1,2.1l-8.8,54.6c-1.1,6.8-2.2,13.5-3.3,20c-1.1,6.5-2,12.4-2.9,17.5c-0.8,5.2-1.5,9.3-2,12.5
			c-0.5,3.1-0.8,4.8-0.8,4.9c-0.2,1.1-0.8,2.1-1.6,2.9c-0.8,0.8-1.9,1.2-3.1,1.2h-13.5c-2,0-3.4-0.4-4-1.3c-0.7-0.9-1.1-1.7-1.3-2.5
			l-19.5-109.6c-0.2-1-0.6-1.7-1-2.2c-0.5-0.4-1-0.9-1.5-1.3c-0.9-0.6-1.8-1.5-2.6-2.7c-0.8-1.2-1.3-2.8-1.3-4.7v-1.7h24.8v1.7
			c0,2-0.4,3.6-1.2,4.8c-0.8,1.2-1.6,2-2.5,2.6c-0.6,0.4-1,0.9-1.3,1.3c-0.3,0.4-0.5,1.2-0.5,2.2l18.5,103.2l16.3-102.6
			c0-1.1-0.2-2-0.7-2.6c-0.4-0.6-1-1.1-1.5-1.6c-0.9-0.6-1.7-1.4-2.4-2.6c-0.7-1.2-1.1-2.8-1.1-4.8v-1.7H699.2z"/>
		<path fill="#F9F4F2" d="M727.8,126.1c-0.4,0.5-0.7,1-0.7,1.6v39.6c0,1.6,0.8,2.4,2.4,2.4h23.7c0.6,0,1.1,0.2,1.7,0.6
			c0.6,0.4,0.8,1,0.8,1.9v6.1c0,1.6-0.8,2.4-2.5,2.4h-23.7c-1.6,0-2.4,0.8-2.4,2.4V228c0,1.6,0.6,2.4,1.9,2.4h24.1
			c0.7,0,1.2-0.3,1.7-0.8c0.4-0.5,0.7-1,0.7-1.6c0-2.2,0.8-4.2,2.3-5.9s3.6-2.5,6.1-2.5h2.2v16.8c0,2.8-1.4,4.2-4.2,4.2h-10.3h-33.3
			h-11.6v-2.4c0-2.5,0.6-4.1,1.8-5c1.2-0.8,2.3-1.5,3.5-2.1c0.6-0.2,1-0.7,1.4-1.4c0.4-0.7,0.6-1.4,0.6-2.1V127.3
			c0-1-0.2-1.7-0.6-2.2c-0.4-0.4-0.9-0.8-1.6-1c-1.1-0.6-2.2-1.4-3.4-2.4c-1.1-1.1-1.7-2.7-1.7-4.8v-2.2h55.2c1.3,0,2.4,0.4,3.1,1.2
			c0.7,0.8,1.1,1.6,1.1,2.5v17.3h-2c-2.4,0-4.4-0.8-6-2.5c-1.6-1.7-2.4-3.6-2.4-5.9c0-1.3-1-2-2.9-2h-23.4
			C728.8,125.3,728.3,125.6,727.8,126.1z"/>
		<path fill="#F9F4F2" d="M789.8,149.7c0,2.6,1,4.9,3.1,7.1c2.1,2.1,4.7,4.2,7.8,6.3c3.1,2.1,6.5,4.2,10.2,6.3
			c3.6,2.1,7,4.5,10.2,7.2c3.1,2.6,5.8,5.6,7.8,9c2.1,3.4,3.1,7.3,3.1,11.8v19.4c0,4.3-0.7,8-2.1,11.2c-1.4,3.2-3.4,5.8-5.9,7.9
			c-2.5,2.1-5.5,3.6-9,4.6c-3.5,1-7.3,1.5-11.5,1.5c-8.3,0-15.1-2-20.4-6.1c-5.3-4.1-7.9-10.5-7.9-19.1v-12.6h4c3,0,5.3,0.9,6.8,2.8
			s2.3,4.1,2.3,6.7v6.7c0,2,0.5,3.7,1.5,5c1,1.3,2.3,2.3,3.8,3.1c1.5,0.8,3.2,1.3,5,1.6c1.8,0.3,3.4,0.4,4.9,0.4
			c1.5,0,3.1-0.2,4.9-0.6c1.8-0.4,3.5-1,5.1-1.9c1.6-0.8,2.9-1.9,4-3.3c1.1-1.3,1.6-3,1.6-4.9v-21.9c0-3.7-1-6.8-3.1-9.4
			c-2.1-2.6-4.7-4.9-7.8-7c-3.1-2.1-6.5-4.1-10.1-6.1c-3.6-2-7-4.1-10.1-6.5c-3.1-2.4-5.8-5.1-7.8-8.2c-2.1-3.1-3.1-6.9-3.1-11.4
			v-10.8c0-9.1,2.4-15.6,7.1-19.5c4.7-3.9,11.2-5.9,19.5-5.9c8.4,0,15,2.1,19.7,6.2c4.7,4.2,7.1,10.6,7.1,19.2v12.5H827
			c-2.8,0-5.2-1.1-7.1-3.4c-1.9-2.2-2.9-4.7-2.9-7.4v-6.2c0-3.5-1.3-6-3.9-7.5c-2.6-1.5-5.8-2.3-9.8-2.3c-3.6,0-6.8,0.8-9.5,2.3
			c-2.8,1.5-4.1,3.7-4.1,6.7V149.7z"/>
		<path fill="#F9F4F2" d="M904.2,115.9c1.1,0.8,1.6,2.4,1.6,4.9v6.2v9.4h-3.4c-0.8,0-1.7-0.2-2.6-0.5c-1-0.3-1.8-0.8-2.6-1.5
			c-0.8-0.7-1.5-1.6-2-2.7c-0.6-1.1-0.8-2.5-0.8-4c0-1.1-0.6-1.7-1.7-1.7h-11.3c-0.8,0-1.4,0.1-1.9,0.4c-0.5,0.3-0.7,0.9-0.7,1.8v98
			v1.2c0,1,0.1,1.7,0.4,2.2c0.3,0.5,0.7,0.9,1.3,1.3c0.9,0.6,1.9,1.5,2.9,2.7c1.1,1.2,1.6,3,1.6,5.2v1.9h-25.6v-1.9
			c0-2.2,0.5-4,1.5-5.2c1-1.2,2-2.1,2.9-2.7c0.6-0.4,1-0.9,1.3-1.3c0.3-0.4,0.5-1.2,0.5-2.2v-0.2v-99.9c0-0.9-0.3-1.5-0.8-1.7
			c-0.6-0.2-1.1-0.3-1.7-0.3h-10.4c-0.4,0-1,0.1-1.5,0.3c-0.6,0.2-0.8,0.7-0.8,1.6c0,0.9-0.2,1.9-0.6,2.9c-0.4,1.1-1,2-1.7,2.9
			c-0.7,0.9-1.7,1.7-2.8,2.3c-1.1,0.6-2.4,0.9-3.7,0.9H839v-10.1v-6.1c0-1.9,0.5-3.3,1.5-4.1c1-0.8,2.8-1.3,5.4-1.3h53.9
			C901.7,114.7,903.2,115.1,904.2,115.9z"/>
	</g>
	<g>
		<g>
			<path fill="#F9F4F2" d="M337.8,336.9c0.3,0.2,0.6,0.5,0.8,0.9c0.3,0.4,0.4,0.9,0.4,1.6v0.8h-8.2v-0.8c0-0.7,0.2-1.2,0.5-1.5
				c0.3-0.3,0.6-0.6,0.9-0.8c0.3-0.2,0.5-0.7,0.5-1.4c-0.1-1-0.3-1.9-0.4-2.7c-0.1-0.7-0.2-1.4-0.3-2c-0.1-0.6-0.2-1-0.2-1.2
				c-0.1-0.4-0.2-0.7-0.4-0.8c-0.2-0.1-0.4-0.1-0.8-0.1h-7.2c-0.7,0-1,0.3-1.1,1c0,0.2-0.1,0.6-0.2,1.2c-0.1,0.6-0.1,1.3-0.2,2
				c-0.1,0.8-0.2,1.7-0.3,2.6c0,0.4,0,0.6,0.1,0.8c0.1,0.1,0.2,0.3,0.4,0.4c0.3,0.2,0.5,0.4,0.8,0.8c0.3,0.3,0.4,0.8,0.4,1.5v1h-8
				v-1c0-0.6,0.1-1.1,0.4-1.4c0.3-0.3,0.5-0.5,0.8-0.7c0.3-0.2,0.5-0.4,0.6-0.7c0.1-0.3,0.2-0.6,0.3-0.9c1-6,2-11.5,2.9-16.2
				c0.4-2,0.7-4,1.1-6c0.3-2,0.6-3.7,0.9-5.2s0.5-2.8,0.7-3.7c0.2-1,0.3-1.4,0.3-1.5c0-0.3,0.1-0.6,0.1-0.8c0-0.2-0.1-0.4-0.5-0.5
				c-0.4-0.2-0.7-0.5-0.8-0.8c-0.1-0.4-0.2-0.9-0.2-1.8v-0.7h6c0.9,0,1.5,0.3,2,0.8c0.5,0.5,0.8,1.1,0.9,1.8c0,0.2,0.1,0.8,0.3,1.8
				c0.2,1.1,0.4,2.4,0.7,4.1c0.3,1.6,0.6,3.5,1,5.6c0.4,2.1,0.8,4.2,1.2,6.3c0.9,5,2,10.7,3.1,17c0.1,0.3,0.1,0.5,0.2,0.7
				C337.4,336.5,337.5,336.7,337.8,336.9z M330.2,325.2c0.3,0,0.5-0.1,0.6-0.3c0.1-0.2,0.2-0.4,0.1-0.6c0,0-0.1-0.4-0.2-1
				s-0.3-1.5-0.4-2.5c-0.2-1-0.4-2.1-0.6-3.4c-0.2-1.2-0.4-2.5-0.6-3.8c-0.5-3.1-1.1-6.5-1.7-10.4c0,0,0-0.1-0.1-0.2l-0.2-0.2
				c0,0-0.1,0.1-0.2,0.2c0,0.1-0.1,0.1-0.1,0.2l-1.8,10.4c-0.2,1.3-0.4,2.6-0.7,3.8c-0.2,1.3-0.4,2.4-0.6,3.4s-0.3,1.8-0.4,2.5
				c-0.1,0.6-0.2,1-0.2,1c0,0.2,0,0.4,0.1,0.6c0.1,0.2,0.3,0.3,0.6,0.3H330.2z"/>
			<path fill="#F9F4F2" d="M353.7,298.3h8v0.5c0,0.6-0.1,1.1-0.4,1.5c-0.2,0.4-0.5,0.6-0.8,0.9c-0.1,0.1-0.3,0.3-0.5,0.5
				c-0.2,0.2-0.3,0.5-0.3,0.8v29.7c0,2.9-0.8,5-2.5,6.4c-1.7,1.4-3.9,2-6.6,2c-2.8,0-5-0.7-6.7-2c-1.6-1.4-2.5-3.5-2.5-6.4v-29.7
				c0-0.4,0-0.6-0.1-0.7c-0.1-0.1-0.2-0.2-0.4-0.3c-0.3-0.2-0.6-0.5-1-0.9c-0.3-0.4-0.5-1-0.5-1.7v-0.6h8.2v0.9
				c0,0.6-0.2,1.2-0.5,1.6c-0.4,0.4-0.7,0.7-1,1c-0.2,0.1-0.3,0.2-0.3,0.4c0,0.1-0.1,0.4-0.1,0.7v30c0,0.7,0.1,1.4,0.4,1.9
				c0.3,0.5,0.7,1,1.1,1.3c0.5,0.4,1,0.6,1.5,0.8c0.6,0.2,1.1,0.3,1.6,0.3c0.5,0,1.1-0.1,1.7-0.3s1.1-0.4,1.6-0.8
				c0.5-0.4,0.9-0.8,1.2-1.3c0.3-0.5,0.5-1.2,0.5-1.9v-30.3c0-0.4-0.1-0.7-0.2-0.9c-0.1-0.2-0.3-0.4-0.4-0.5
				c-0.3-0.2-0.6-0.4-0.9-0.7c-0.3-0.3-0.4-0.8-0.4-1.5V298.3z"/>
			<path fill="#F9F4F2" d="M383.6,339.7c0,0.4-0.1,0.6-0.4,0.6h-0.7c-0.3,0-0.5-0.1-0.5-0.4c0-0.3-0.1-0.6-0.2-0.8
				c-0.1-0.3-0.3-0.4-0.6-0.3c-0.2,0.1-0.6,0.3-1,0.5c-0.7,0.4-1.8,0.7-3,0.9c-1.3,0.2-2.5,0.3-3.6,0.3c-1.3,0-2.5-0.2-3.7-0.5
				c-1.2-0.3-2.2-0.8-3.1-1.5c-0.9-0.7-1.6-1.6-2.1-2.6s-0.8-2.3-0.8-3.7v-26c0-1.4,0.2-2.7,0.7-3.7c0.5-1.1,1.2-1.9,2-2.6
				c0.9-0.7,1.9-1.2,3.1-1.6c1.2-0.4,2.5-0.5,3.8-0.5c1.4,0,2.7,0.2,3.9,0.5c1.2,0.4,2.3,0.9,3.2,1.6c0.9,0.7,1.6,1.6,2.1,2.6
				s0.8,2.3,0.8,3.7v3.8h-1.3c-0.2,0-0.5-0.1-0.8-0.2c-0.3-0.1-0.7-0.3-1-0.5c-0.3-0.2-0.6-0.5-0.8-0.8c-0.2-0.3-0.4-0.7-0.4-1.1
				v-2.1c0-0.7-0.2-1.4-0.6-1.9c-0.4-0.5-0.8-0.9-1.4-1.2c-0.5-0.3-1.1-0.5-1.8-0.7c-0.6-0.1-1.2-0.2-1.7-0.2
				c-0.5,0-1.1,0.1-1.7,0.2s-1.2,0.4-1.7,0.7c-0.5,0.3-1,0.7-1.4,1.3c-0.4,0.5-0.6,1.1-0.6,1.8v27.4c0,0.7,0.2,1.4,0.6,1.9
				c0.4,0.5,0.8,0.9,1.4,1.3c0.5,0.3,1.1,0.6,1.7,0.7c0.6,0.1,1.2,0.2,1.7,0.2c0.5,0,1-0.1,1.7-0.2c0.6-0.1,1.2-0.3,1.8-0.6
				c0.6-0.3,1-0.7,1.4-1.2c0.4-0.5,0.6-1.1,0.6-1.8v-9.4c0-0.4-0.1-0.7-0.3-0.8c-0.2-0.1-0.4-0.3-0.6-0.3c-0.5-0.1-0.8-0.4-1-0.8
				c-0.1-0.4-0.2-0.9-0.2-1.6v-1.3h5.1c0.2,0,0.5,0.1,0.8,0.3c0.3,0.2,0.5,0.5,0.5,1v10.3C383.6,333,383.6,336.2,383.6,339.7z"/>
			<path fill="#F9F4F2" d="M418.8,333.9v4.9c0,0.1,0,0.2,0,0.3c0,0.1-0.1,0.3-0.2,0.5c-0.1,0.2-0.2,0.3-0.4,0.4
				c-0.2,0.1-0.5,0.2-0.8,0.2H414h-0.1h-10.5c-0.5,0-1-0.1-1.3-0.3c-0.4-0.2-0.7-0.5-0.9-0.8c-0.2-0.3-0.4-0.6-0.5-1s-0.2-0.7-0.2-1
				v-6.8c0-1.2,0.3-2.3,0.8-3.3s1.1-1.9,1.9-2.7c0.8-0.8,1.6-1.6,2.5-2.3c0.9-0.7,1.8-1.4,2.7-2.1c0.9-0.7,1.6-1.4,2.4-2
				c0.7-0.6,1.3-1.2,1.8-1.8c0.5-0.6,0.9-1.2,1.2-1.8c0.3-0.6,0.4-1.3,0.4-2.1v-6.7c0-0.7-0.2-1.4-0.5-1.8c-0.3-0.5-0.7-0.9-1.2-1.1
				c-0.5-0.3-1-0.5-1.5-0.6c-0.5-0.1-1.1-0.2-1.5-0.2c-0.5,0-1.1,0-1.6,0.1c-0.5,0.1-1,0.3-1.5,0.5c-0.4,0.3-0.8,0.6-1.1,1.1
				c-0.3,0.5-0.4,1.1-0.4,1.8v0.7h-0.1v4.8h-2.4c-0.5,0-0.9-0.1-1.1-0.2c-0.3-0.1-0.5-0.4-0.6-0.6c-0.1-0.3-0.2-0.6-0.2-1
				c0-0.4,0-0.8,0-1.2v-1.5v0.1c0-2.9,0.8-5,2.5-6.4c1.6-1.4,3.8-2.1,6.5-2.1c2.7,0,4.9,0.7,6.5,2.1c1.7,1.4,2.5,3.5,2.5,6.4v6
				c0,1.2-0.2,2.3-0.7,3.3c-0.5,1-1.1,1.9-1.8,2.7c-0.7,0.8-1.5,1.6-2.4,2.3c-0.9,0.7-1.7,1.4-2.5,2.1c-0.9,0.7-1.7,1.4-2.4,2
				c-0.8,0.6-1.4,1.2-2,1.8c-0.6,0.6-1,1.2-1.3,1.9c-0.3,0.6-0.5,1.3-0.5,2.1v4.4c0,0.9,0.4,1.4,1.1,1.4h8.6c0.4,0,0.6-0.2,0.7-0.5
				c0.2-0.4,0.5-0.8,0.9-1.2c0.4-0.4,1.1-0.6,1.9-0.6H418.8z"/>
			<path fill="#F9F4F2" d="M430.1,337.1c0.3,0.2,0.6,0.5,0.9,1c0.3,0.4,0.4,0.9,0.4,1.6v0.5h-8.1v-0.5c0-0.6,0.1-1.2,0.4-1.6
				c0.3-0.4,0.6-0.7,0.9-1c0.1-0.1,0.3-0.2,0.4-0.4c0.1-0.1,0.2-0.4,0.2-0.7v-29.5c0-0.4-0.2-0.6-0.7-0.6h-0.2c-0.1,0-0.4,0-0.7,0
				c-0.3,0-0.6-0.1-0.9-0.2c-0.3-0.1-0.6-0.4-0.8-0.7c-0.2-0.4-0.4-0.9-0.4-1.5v-1.1c1.2-0.1,2.1-0.3,2.7-0.8
				c0.6-0.5,1.1-1.2,1.5-2.3c0.1-0.2,0.3-0.4,0.6-0.7c0.3-0.2,0.7-0.3,1.4-0.3h1.7l0.1,37.7C429.6,336.4,429.8,336.8,430.1,337.1z"
				/>
			<path fill="#F9F4F2" d="M493.7,298.5c0.3,0.2,0.4,0.6,0.4,1v2.9c0,0.3,0,0.6-0.1,0.8c-0.1,0.2-0.2,0.4-0.3,0.4
				c-1.3,1.8-2.3,3.9-3.2,6.3c-0.9,2.4-1.6,5-2.2,7.7c-0.6,2.7-1,5.6-1.3,8.6c-0.3,3-0.5,6.1-0.6,9.2c0,0.3,0.1,0.6,0.2,0.7
				c0.1,0.1,0.3,0.3,0.5,0.4c0.3,0.2,0.5,0.5,0.8,0.9c0.3,0.4,0.4,0.9,0.4,1.6v1h-1.9h-4.5H480v-1c0-0.6,0.1-1.2,0.4-1.6
				c0.3-0.4,0.6-0.7,0.9-0.9c0.3-0.2,0.5-0.5,0.6-0.7c0-0.3,0.1-0.5,0.1-0.8c0-0.2,0-0.5,0.1-0.8l0.1-0.8c0.2-2.8,0.5-5.7,0.8-8.6
				s0.9-5.8,1.5-8.5c0.6-2.7,1.4-5.3,2.3-7.7c0.9-2.4,2-4.4,3.2-6.2c0.1-0.2,0.1-0.3,0-0.4c-0.1-0.1-0.2-0.1-0.3-0.1H482
				c-0.4,0-0.7,0.1-1,0.4c-0.3,0.2-0.4,0.6-0.4,1v2.4h-1.3c-0.6,0-1.1-0.1-1.5-0.2c-0.4-0.1-0.7-0.3-0.9-0.5s-0.3-0.4-0.4-0.6
				c-0.1-0.2-0.1-0.4-0.1-0.6v-0.6v-0.2v-3.5c0-0.9,0.6-1.4,1.8-1.4h14.5C493.1,298.2,493.4,298.3,493.7,298.5z"/>
			<path fill="#F9F4F2" d="M504.3,327c0,0.1-0.1,0.2-0.2,0.2h-10.3c-0.1,0-0.2-0.1-0.2-0.2v-3.6c0-0.1,0.1-0.2,0.2-0.2h10.3
				c0.1,0,0.2,0.1,0.2,0.2V327z"/>
			<path fill="#F9F4F2" d="M515,337.1c0.3,0.2,0.6,0.5,0.9,1c0.3,0.4,0.4,0.9,0.4,1.6v0.5h-8.1v-0.5c0-0.6,0.1-1.2,0.4-1.6
				c0.3-0.4,0.6-0.7,0.9-1c0.1-0.1,0.3-0.2,0.4-0.4c0.1-0.1,0.2-0.4,0.2-0.7v-29.5c0-0.4-0.2-0.6-0.7-0.6h-0.2c-0.2,0-0.4,0-0.7,0
				c-0.3,0-0.6-0.1-0.9-0.2s-0.6-0.4-0.8-0.7c-0.2-0.4-0.4-0.9-0.4-1.5v-1.1c1.2-0.1,2.1-0.3,2.7-0.8c0.6-0.5,1.1-1.2,1.5-2.3
				c0.1-0.2,0.3-0.4,0.6-0.7c0.3-0.2,0.7-0.3,1.4-0.3h1.7l0.1,37.7C514.4,336.4,514.6,336.8,515,337.1z"/>
			<path fill="#F9F4F2" d="M527.2,337.1c0.3,0.2,0.6,0.5,0.9,1c0.3,0.4,0.4,0.9,0.4,1.6v0.5h-8.1v-0.5c0-0.6,0.1-1.2,0.4-1.6
				c0.3-0.4,0.6-0.7,0.9-1c0.1-0.1,0.3-0.2,0.4-0.4c0.1-0.1,0.2-0.4,0.2-0.7v-29.5c0-0.4-0.2-0.6-0.7-0.6h-0.2c-0.2,0-0.4,0-0.7,0
				c-0.3,0-0.6-0.1-0.9-0.2s-0.6-0.4-0.8-0.7c-0.2-0.4-0.4-0.9-0.4-1.5v-1.1c1.2-0.1,2.1-0.3,2.7-0.8c0.6-0.5,1.1-1.2,1.5-2.3
				c0.1-0.2,0.3-0.4,0.6-0.7c0.3-0.2,0.7-0.3,1.4-0.3h1.7l0.1,37.7C526.7,336.4,526.8,336.8,527.2,337.1z"/>
			<path fill="#F9F4F2" d="M556.2,298.3c1.8,0,3.3,0.3,4.4,0.8c1.2,0.5,2.1,1.3,2.8,2.1c0.7,0.9,1.2,1.9,1.5,2.9
				c0.3,1.1,0.4,2.2,0.4,3.2v5c0,3.4-0.7,5.8-2,7.4c-1.4,1.5-3.6,2.3-6.9,2.3h-3.8c-0.4,0-0.6,0.2-0.6,0.7v12.9c0,0.4,0,0.6,0.1,0.8
				c0.1,0.1,0.2,0.3,0.4,0.4c0.3,0.2,0.6,0.5,1,1c0.3,0.4,0.5,1,0.5,1.7v0.7h-8.5v-0.7c0-0.7,0.2-1.3,0.5-1.7c0.3-0.4,0.7-0.7,1-1
				c0.2-0.1,0.3-0.2,0.4-0.4c0.1-0.1,0.2-0.4,0.2-0.8V303c0-0.6-0.1-1-0.2-1.1s-0.3-0.3-0.6-0.5c-0.3-0.2-0.6-0.5-0.8-0.8
				c-0.2-0.4-0.3-0.9-0.3-1.7v-0.6H556.2z M560.9,307.3c0-0.7-0.1-1.3-0.3-2c-0.2-0.6-0.5-1.2-0.8-1.7c-0.4-0.5-0.8-0.9-1.3-1.3
				c-0.5-0.3-1-0.5-1.6-0.5h-4.3c-0.4,0-0.7,0.2-0.7,0.7v15.2c0,0.4,0.2,0.6,0.6,0.6h4.3c1.2,0,2.2-0.4,2.9-1.2
				c0.7-0.8,1.1-1.8,1.1-3.1V307.3z"/>
			<path fill="#F9F4F2" d="M597.2,335.7c0,0.4,0,0.6,0.1,0.8c0.1,0.1,0.2,0.3,0.4,0.4c0.3,0.2,0.6,0.5,1,0.9c0.4,0.4,0.5,1,0.5,1.7
				v0.6h-8.6v-0.6c0-0.7,0.2-1.3,0.5-1.7c0.4-0.4,0.7-0.7,1-0.9c0.2-0.1,0.3-0.2,0.4-0.4c0.1-0.1,0.2-0.4,0.2-0.8v-0.5v-26
				c0-0.1,0-0.2-0.1-0.3c-0.1-0.1-0.1-0.1-0.2,0.1c-1.4,2.8-2.6,5.3-3.7,7.6c-0.4,1-0.9,1.9-1.4,2.9c-0.5,1-0.9,1.8-1.2,2.6
				c-0.4,0.8-0.7,1.4-0.9,1.9c-0.3,0.5-0.4,0.8-0.4,1c-0.1,0.3-0.3,0.5-0.7,0.6s-0.7,0.2-1,0.2s-0.7-0.1-1-0.2s-0.5-0.3-0.6-0.5
				c-0.1-0.1-0.2-0.4-0.5-1c-0.2-0.5-0.6-1.2-1-1.9c-0.4-0.8-0.8-1.6-1.3-2.6c-0.5-1-0.9-1.9-1.4-2.9c-1.1-2.3-2.4-4.8-3.8-7.7
				c0-0.1-0.1-0.1-0.2-0.1c-0.1,0-0.1,0.1-0.1,0.2v26.5c0,0.4,0,0.6,0.1,0.8c0.1,0.1,0.2,0.3,0.4,0.4c0.3,0.2,0.6,0.5,1,1
				c0.4,0.4,0.5,1,0.5,1.7v0.7h-8.6v-0.7c0-0.7,0.2-1.3,0.5-1.7c0.4-0.4,0.7-0.7,1-1c0.2-0.1,0.3-0.2,0.4-0.4
				c0.1-0.1,0.2-0.4,0.2-0.8v-34c-0.4-0.1-0.7-0.2-1-0.5c-0.3-0.2-0.5-0.5-0.7-0.9c-0.2-0.4-0.3-0.9-0.3-1.6v-0.4h5.6
				c0.2,0,0.5,0.1,0.7,0.2c0.2,0.2,0.4,0.4,0.5,0.7c0.3,0.6,0.7,1.5,1.2,2.7c0.5,1.2,1.1,2.5,1.8,3.9c0.7,1.4,1.3,2.8,2,4.3
				c0.7,1.5,1.3,2.8,1.9,4.1c0.6,1.2,1.1,2.3,1.5,3.1c0.4,0.8,0.6,1.3,0.6,1.4c0.2,0.3,0.4,0.3,0.5,0c0,0,0.1-0.3,0.4-0.9
				c0.3-0.6,0.6-1.3,1.1-2.2c0.4-0.9,0.9-2,1.5-3.1c0.5-1.2,1.1-2.3,1.7-3.5l4.5-9.6c0.2-0.4,0.4-0.6,0.6-0.7
				c0.2-0.1,0.5-0.2,0.8-0.2h5.3v0.4c0,0.6-0.1,1.2-0.3,1.6c-0.2,0.4-0.4,0.7-0.6,0.9c-0.3,0.3-0.6,0.4-1,0.5V335.7z"/>
		</g>
	</g>
	<rect x="269.8" y="270" fill="#F9F4F2" width="374.8" height="2.2"/>
	<rect x="269.8" y="86.5" fill="#F9F4F2" width="374.8" height="2.2"/>
	<g>
		<g>
			<path fill="#F9F4F2" d="M368.3,48.9c0.1,0.4,0.2,0.6,0.3,0.7c0.1,0.1,0.3,0.2,0.5,0.3c0.3,0.1,0.7,0.3,1.2,0.7
				c0.4,0.3,0.8,0.8,0.9,1.5l0.1,0.6l-8.3,2l-0.1-0.6c-0.2-0.7-0.1-1.3,0.1-1.8c0.2-0.5,0.5-0.9,0.7-1.1c0.2-0.2,0.3-0.3,0.3-0.5
				c0.1-0.2,0.1-0.4,0-0.8l-0.1-0.5l-6-25.3c0-0.1-0.1-0.1-0.2-0.2c-0.1-0.1-0.2,0-0.2,0.1c-0.7,3-1.3,5.8-1.8,8.3
				c-0.2,1-0.4,2.1-0.7,3.1c-0.2,1-0.4,2-0.6,2.8c-0.2,0.8-0.3,1.5-0.4,2.1c-0.1,0.6-0.2,0.9-0.2,1c0,0.3-0.2,0.5-0.5,0.7
				c-0.3,0.2-0.6,0.3-1,0.4c-0.3,0.1-0.7,0.1-1,0c-0.3-0.1-0.6-0.2-0.8-0.4c-0.1-0.1-0.3-0.4-0.7-0.8c-0.4-0.5-0.8-1-1.4-1.7
				c-0.6-0.7-1.2-1.4-1.9-2.2c-0.7-0.8-1.4-1.6-2.1-2.5c-1.6-2-3.4-4.1-5.4-6.6c-0.1-0.1-0.1-0.1-0.2-0.1c-0.1,0-0.1,0.1-0.1,0.2
				l6.2,25.8c0.1,0.4,0.2,0.6,0.3,0.7c0.1,0.1,0.3,0.2,0.5,0.3c0.3,0.1,0.7,0.4,1.2,0.7c0.4,0.3,0.7,0.8,0.9,1.5l0.2,0.7l-8.3,2
				l-0.2-0.7c-0.2-0.7-0.1-1.3,0.1-1.8c0.2-0.5,0.5-0.9,0.7-1.2c0.2-0.2,0.3-0.3,0.3-0.5c0.1-0.2,0.1-0.4,0-0.8l-7.9-33
				c-0.4,0-0.7-0.1-1-0.3c-0.3-0.1-0.6-0.4-0.9-0.7c-0.3-0.4-0.5-0.8-0.6-1.5l-0.1-0.4l5.4-1.3c0.2-0.1,0.5,0,0.7,0.1
				c0.3,0.1,0.5,0.3,0.7,0.5c0.4,0.6,1,1.3,1.8,2.4c0.8,1,1.7,2.1,2.6,3.3c1,1.2,1.9,2.5,3,3.7c1,1.3,1.9,2.4,2.8,3.5
				c0.8,1.1,1.6,1.9,2.1,2.7c0.6,0.7,0.9,1.1,1,1.2c0.3,0.2,0.4,0.2,0.5-0.1c0,0,0.1-0.4,0.2-1c0.1-0.6,0.3-1.4,0.5-2.4
				c0.2-1,0.4-2.1,0.7-3.4c0.3-1.2,0.5-2.5,0.8-3.8l2.1-10.4c0.1-0.4,0.2-0.7,0.5-0.9c0.2-0.2,0.5-0.3,0.8-0.4l5.1-1.2l0.1,0.4
				c0.1,0.6,0.2,1.1,0.1,1.6c-0.1,0.4-0.2,0.8-0.4,1c-0.2,0.3-0.5,0.6-0.8,0.7L368.3,48.9z"/>
			<path fill="#F9F4F2" d="M394.4,45.4c0.3,0.1,0.7,0.4,1,0.7c0.3,0.4,0.6,0.8,0.7,1.5l0.1,0.8l-8,1.4L388,49
				c-0.1-0.7,0-1.2,0.2-1.5c0.3-0.4,0.5-0.7,0.8-0.9c0.3-0.3,0.4-0.8,0.2-1.5c-0.3-0.9-0.6-1.8-0.9-2.6c-0.2-0.7-0.5-1.3-0.7-1.9
				c-0.2-0.6-0.3-1-0.4-1.2c-0.2-0.4-0.3-0.7-0.5-0.7c-0.2,0-0.4,0-0.8,0L379,40c-0.7,0.1-1,0.5-0.9,1.1c0,0.2,0,0.6,0.1,1.2
				c0,0.6,0.1,1.3,0.1,2c0,0.8,0.1,1.7,0.1,2.6c0.1,0.4,0.1,0.6,0.2,0.8c0.1,0.1,0.3,0.3,0.5,0.4c0.3,0.1,0.6,0.3,0.9,0.6
				c0.3,0.3,0.5,0.8,0.7,1.4l0.2,0.9l-7.9,1.4l-0.2-0.9c-0.1-0.6-0.1-1.1,0.1-1.4c0.2-0.3,0.4-0.6,0.7-0.9c0.3-0.2,0.4-0.5,0.5-0.8
				c0-0.3,0.1-0.6,0.1-0.9c0-6.1-0.1-11.6,0-16.5c0-2,0-4.1,0-6.1c0-2,0-3.8,0-5.3c0-1.6,0-2.8,0-3.8c0-1,0-1.5,0-1.5
				c0-0.3,0-0.6,0-0.8c0-0.2-0.2-0.4-0.6-0.4c-0.4-0.1-0.8-0.3-1-0.7c-0.2-0.3-0.4-0.9-0.5-1.7l-0.1-0.7l5.9-1.1
				c0.8-0.2,1.6,0,2.2,0.4c0.6,0.4,1,1,1.2,1.6c0,0.1,0.2,0.7,0.6,1.7c0.4,1,0.8,2.3,1.4,3.9c0.6,1.6,1.2,3.3,2,5.3
				c0.7,2,1.5,4,2.3,6c1.8,4.8,3.8,10.2,6.1,16.1c0.1,0.3,0.2,0.5,0.3,0.7C394,45.1,394.2,45.2,394.4,45.4z M384.9,35.2
				c0.3-0.1,0.5-0.2,0.6-0.4c0.1-0.2,0.1-0.4,0-0.6c0,0-0.1-0.4-0.3-1c-0.2-0.6-0.5-1.4-0.8-2.4s-0.7-2-1.1-3.2
				c-0.4-1.2-0.9-2.4-1.3-3.7c-1.1-2.9-2.2-6.2-3.5-9.9c0,0,0-0.1-0.1-0.2l-0.2-0.1c0,0-0.1,0.1-0.2,0.2c0,0.1,0,0.1,0,0.2l0.1,10.6
				c0,1.3,0,2.6,0,3.9c0,1.3,0,2.4,0,3.4s0,1.9,0,2.5c0,0.6,0,1,0,1c0,0.2,0.1,0.4,0.2,0.6c0.2,0.1,0.4,0.2,0.6,0.1L384.9,35.2z"/>
			<path fill="#F9F4F2" d="M405.3,5c1.5-0.2,2.8-0.1,3.9,0.2c1.1,0.3,2,0.8,2.7,1.5c0.7,0.7,1.3,1.6,1.7,2.7
				c0.4,1.1,0.7,2.3,0.9,3.7l3,23.8c0.4,2.8,0,5-1.1,6.7c-1.1,1.7-3.1,2.7-6,3l-12.6,1.6l-0.1-0.8c-0.1-0.8-0.1-1.4,0.1-1.6
				c0.2-0.3,0.4-0.5,0.8-0.8c0.4-0.3,0.6-0.7,0.6-1.1l-4.2-32.5c0-0.3-0.1-0.6-0.3-0.7c-0.2-0.1-0.4-0.2-0.6-0.3
				c-0.8-0.2-1.3-1.1-1.4-2.5l-0.1-1.1L405.3,5z M410.1,12.9c-0.2-1.4-0.6-2.5-1.3-3.4c-0.7-0.8-1.6-1.2-2.7-1l-6.1,0.8
				c-0.5,0.1-0.7,0.4-0.7,0.9l4.2,33.1c0.1,0.4,0.3,0.6,0.7,0.6l5.7-0.7c1.3-0.2,2.2-0.7,2.8-1.5c0.6-0.9,0.7-2.1,0.5-3.8
				L410.1,12.9z"/>
			<path fill="#F9F4F2" d="M428.3,41.4c0.3,0.2,0.7,0.5,1.1,0.9c0.4,0.4,0.6,0.9,0.7,1.6l0.1,0.7l-8.5,0.7l-0.1-0.7
				c-0.1-0.7,0.1-1.3,0.4-1.7c0.3-0.5,0.6-0.8,0.9-1c0.3-0.2,0.5-0.5,0.5-0.9l-2.9-33.3c-0.1-0.3-0.1-0.5-0.2-0.6
				c-0.1-0.1-0.2-0.2-0.4-0.3c-0.3-0.2-0.7-0.4-1.1-0.8c-0.4-0.4-0.6-0.9-0.7-1.7l-0.1-0.6l0.2,0l8.2-0.7l0.2,0l0.1,0.6
				c0.1,0.7-0.1,1.3-0.4,1.7c-0.3,0.5-0.6,0.8-0.9,1c-0.1,0.1-0.3,0.2-0.3,0.4c-0.1,0.1-0.1,0.3-0.1,0.6l2.9,33.2
				c0,0.4,0.1,0.6,0.2,0.7C428,41.2,428.1,41.3,428.3,41.4z"/>
			<path fill="#F9F4F2" d="M436,13.8c0,0.9,0.4,1.6,1.1,2.3c0.7,0.7,1.6,1.3,2.7,2c1.1,0.6,2.2,1.3,3.5,1.9c1.2,0.7,2.4,1.4,3.5,2.2
				c1.1,0.8,2,1.8,2.7,2.9c0.7,1.1,1.1,2.4,1.2,3.9l0.3,6.4c0.1,1.4-0.1,2.7-0.5,3.8c-0.4,1.1-1,2-1.8,2.7c-0.8,0.7-1.8,1.3-2.9,1.7
				s-2.4,0.6-3.8,0.7c-2.8,0.1-5-0.4-6.9-1.7c-1.8-1.3-2.8-3.4-2.9-6.2l-0.2-4.2l1.3-0.1c1,0,1.8,0.2,2.3,0.8
				c0.5,0.6,0.8,1.3,0.9,2.2l0.1,2.2c0,0.7,0.2,1.2,0.6,1.6c0.4,0.4,0.8,0.7,1.3,1c0.5,0.2,1.1,0.4,1.7,0.5c0.6,0.1,1.1,0.1,1.6,0.1
				c0.5,0,1-0.1,1.6-0.3c0.6-0.2,1.1-0.4,1.6-0.7c0.5-0.3,0.9-0.7,1.3-1.2c0.3-0.5,0.5-1,0.5-1.6l-0.3-7.3c-0.1-1.2-0.4-2.3-1.2-3.1
				c-0.7-0.8-1.6-1.6-2.7-2.2c-1.1-0.6-2.2-1.3-3.4-1.9c-1.2-0.6-2.4-1.3-3.5-2c-1.1-0.7-2-1.6-2.7-2.6c-0.7-1-1.1-2.2-1.2-3.7
				l-0.2-3.6c-0.1-3,0.5-5.2,2.1-6.6c1.5-1.4,3.6-2.1,6.4-2.3c2.8-0.1,5,0.5,6.6,1.8c1.6,1.3,2.5,3.4,2.6,6.3l0.2,4.1l-1.1,0.1
				c-0.9,0-1.7-0.3-2.4-1c-0.7-0.7-1-1.5-1.1-2.4l-0.1-2.1c-0.1-1.2-0.5-2-1.4-2.4c-0.9-0.5-2-0.7-3.3-0.6c-1.2,0.1-2.2,0.4-3.1,0.9
				c-0.9,0.5-1.3,1.3-1.3,2.3L436,13.8z"/>
			<path fill="#F9F4F2" d="M464.8,44c-1.4,0-2.7-0.2-3.8-0.6c-1.2-0.4-2.2-0.9-3-1.6c-0.8-0.7-1.5-1.6-2-2.7
				c-0.5-1.1-0.7-2.3-0.7-3.7l0.6-26c0-1.4,0.3-2.7,0.8-3.7c0.5-1.1,1.2-1.9,2.1-2.6c0.9-0.7,1.9-1.2,3.1-1.5
				c1.2-0.3,2.5-0.5,3.9-0.4c1.4,0,2.7,0.2,3.8,0.6c1.2,0.4,2.2,0.9,3,1.6c0.8,0.7,1.5,1.6,2,2.7c0.5,1.1,0.7,2.3,0.7,3.7l-0.6,26
				c0,1.4-0.3,2.7-0.8,3.7c-0.5,1.1-1.2,1.9-2.1,2.6c-0.9,0.7-1.9,1.2-3.1,1.5C467.5,43.9,466.2,44.1,464.8,44z M471,9.1
				c0-0.7-0.2-1.4-0.5-1.9c-0.4-0.5-0.8-1-1.3-1.4c-0.5-0.4-1.1-0.6-1.7-0.8c-0.6-0.2-1.2-0.3-1.7-0.3c-0.5,0-1.1,0.1-1.7,0.2
				c-0.6,0.2-1.2,0.4-1.8,0.7c-0.5,0.3-1,0.8-1.4,1.3c-0.4,0.5-0.6,1.2-0.6,1.9l-0.7,27.2c0,0.7,0.1,1.4,0.5,1.9
				c0.3,0.5,0.8,1,1.3,1.4c0.5,0.4,1.1,0.6,1.7,0.8s1.2,0.3,1.7,0.3c0.5,0,1-0.1,1.7-0.2c0.6-0.2,1.2-0.4,1.8-0.7
				c0.5-0.3,1-0.8,1.4-1.3c0.4-0.5,0.6-1.2,0.6-1.9L471,9.1z"/>
			<path fill="#F9F4F2" d="M504.1,4.2L504,4.8c-0.1,0.7-0.3,1.3-0.7,1.7c-0.4,0.4-0.7,0.7-1.1,0.8c-0.2,0.1-0.3,0.2-0.5,0.4
				s-0.2,0.4-0.2,0.7l-3.3,36.4c0,0.4-0.1,0.6-0.2,0.7c-0.1,0.1-0.4,0.1-0.8,0.1l-1.8-0.2c-0.3,0-0.5-0.1-0.9-0.2
				c-0.3-0.1-0.6-0.4-0.8-1.1c-0.1-0.2-0.2-0.7-0.4-1.6s-0.5-2.1-0.9-3.5c-0.4-1.4-0.8-2.9-1.3-4.7c-0.5-1.7-0.9-3.5-1.4-5.3
				c-0.5-1.8-1-3.5-1.4-5.2c-0.5-1.7-0.9-3.2-1.2-4.5c-0.4-1.3-0.8-2.8-1.2-4.5c-0.1-0.2-0.1-0.2-0.1,0L483.6,40
				c0,0.4,0,0.6,0.1,0.8c0.1,0.2,0.2,0.3,0.4,0.4c0.3,0.2,0.6,0.6,0.9,1c0.3,0.4,0.4,1,0.4,1.7l-0.1,0.7l-8.5-0.7l0.1-0.7
				c0.1-0.7,0.3-1.2,0.7-1.6c0.4-0.4,0.7-0.7,1.1-0.9c0.2-0.1,0.3-0.2,0.5-0.4c0.1-0.1,0.2-0.4,0.2-0.8l2.9-33.5
				c-0.4-0.1-0.7-0.4-1-0.6c-0.2-0.2-0.4-0.6-0.6-1c-0.2-0.4-0.2-0.9-0.1-1.6l0.1-0.7l5.5,0.5c0.7,0.1,1.2,0.5,1.3,1.3
				c0,0.1,0.2,0.8,0.5,2c0.3,1.3,0.8,2.9,1.3,4.8c0.5,1.9,1.1,4.1,1.7,6.4s1.2,4.5,1.7,6.6c0.5,2.1,1,3.9,1.4,5.4
				c0.4,1.6,0.7,2.6,0.8,3.1c0.1,0.2,0.1,0.2,0.2,0.2c0.1,0,0.1-0.1,0.1-0.2L497.2,8c0-0.3,0-0.6-0.1-0.8c-0.1-0.2-0.2-0.3-0.4-0.5
				c-0.3-0.2-0.6-0.5-0.9-0.9c-0.3-0.4-0.5-1-0.4-1.7l0.1-0.8L504.1,4.2z"/>
			<path fill="#F9F4F2" d="M507.8,43.8l-0.2,1.9l-0.1,1c-0.1,0.6-0.2,1.1-0.3,1.5c-0.1,0.4-0.3,0.8-0.5,1.1c-0.2,0.3-0.5,0.7-0.9,1
				c-0.4,0.3-0.9,0.7-1.5,1.2c-0.4,0.3-0.6,0.4-0.7,0.4c-0.1,0-0.2-0.1-0.4-0.4c-0.2-0.2-0.2-0.4,0-0.5s0.5-0.3,0.9-0.6
				c1.3-1,2-1.8,2.1-2.6c0.1-0.7-0.3-1.2-1.1-1.3s-1.4-0.2-1.6-0.4c-0.2-0.2-0.3-0.4-0.3-0.7l0.3-2.3c0-0.3,0.2-0.5,0.5-0.6
				c0.3-0.1,0.9-0.1,1.7,0c0.9,0.1,1.4,0.2,1.7,0.4C507.6,43.4,507.8,43.6,507.8,43.8z"/>
			<path fill="#F9F4F2" d="M569.2,15.6l-0.1,0.5c-0.1,0.6-0.4,1.1-0.7,1.5c-0.3,0.4-0.7,0.6-1,0.7c-0.2,0.1-0.4,0.2-0.6,0.4
				c-0.2,0.1-0.3,0.3-0.5,0.6L561,36.7c-0.7,2.2-1.3,4.3-2,6.4c-0.7,2.1-1.2,3.9-1.7,5.6c-0.5,1.6-0.9,3-1.2,4
				c-0.3,1-0.5,1.5-0.5,1.6c-0.1,0.4-0.4,0.6-0.7,0.8c-0.3,0.2-0.7,0.3-1.1,0.2l-4-0.8c-0.7-0.1-1.1-0.4-1.2-0.7
				c-0.2-0.3-0.2-0.6-0.3-0.9l0.8-33.7l-12.7,31.3c-0.1,0.2-0.3,0.5-0.6,0.7c-0.3,0.2-0.7,0.3-1.4,0.2l-3.9-0.8
				c-0.4-0.1-0.7-0.3-0.9-0.6c-0.2-0.3-0.3-0.7-0.3-1c0,0,0.1-0.6,0.2-1.6c0.1-1,0.2-2.4,0.4-4.1c0.2-1.7,0.4-3.7,0.6-5.8
				c0.2-2.2,0.4-4.4,0.7-6.7l1.9-18.1c0-0.3-0.1-0.6-0.2-0.8c-0.1-0.2-0.2-0.4-0.4-0.6c-0.3-0.2-0.5-0.6-0.6-1
				c-0.2-0.5-0.2-1-0.1-1.6l0.1-0.5l8.2,1.7l-0.1,0.5c-0.1,0.7-0.4,1.2-0.7,1.5c-0.3,0.3-0.6,0.6-1,0.7c-0.2,0.1-0.4,0.2-0.6,0.4
				c-0.2,0.2-0.3,0.4-0.4,0.8L533.4,47c2.6-6.3,4.9-11.9,6.9-16.9c0.9-2.1,1.7-4.2,2.5-6.3c0.8-2.1,1.6-3.9,2.3-5.5
				c0.7-1.6,1.2-3,1.7-4c0.4-1.1,0.7-1.6,0.7-1.7c0.2-0.4,0.5-0.7,1.1-0.8c0.6-0.1,1.2-0.1,1.8,0s1.2,0.3,1.7,0.6s0.8,0.8,0.8,1.5
				c0,0.2,0,0.9,0,2c0,1.1-0.1,2.6-0.1,4.4c0,1.8-0.1,3.7-0.1,6c0,2.2-0.1,4.4-0.1,6.7c-0.1,5.3-0.2,11.3-0.3,17.9l9.8-32.2
				c0.1-0.4,0.1-0.7,0-0.9c-0.1-0.2-0.2-0.4-0.4-0.6c-0.3-0.2-0.5-0.6-0.6-1s-0.2-1,0-1.6l0.1-0.5L569.2,15.6z"/>
			<path fill="#F9F4F2" d="M570.4,56c0.2,0.3,0.5,0.7,0.7,1.2c0.2,0.5,0.3,1.1,0.1,1.8l-0.2,0.7l-8.3-2.1l0.2-0.7
				c0.2-0.7,0.5-1.2,0.9-1.5c0.4-0.3,0.8-0.5,1.2-0.7c0.4-0.1,0.6-0.3,0.8-0.7l8.3-32.4c0-0.3,0-0.5,0-0.6c-0.1-0.1-0.2-0.3-0.3-0.4
				c-0.2-0.3-0.5-0.6-0.7-1.1c-0.2-0.5-0.3-1.1-0.1-1.8l0.2-0.6l0.2,0l8,2l0.2,0l-0.2,0.6c-0.2,0.7-0.5,1.2-0.9,1.5
				s-0.8,0.5-1.2,0.7c-0.2,0.1-0.3,0.1-0.4,0.2c-0.1,0.1-0.2,0.3-0.3,0.5l-8.3,32.3c-0.1,0.4-0.1,0.6,0,0.7
				C570.1,55.7,570.2,55.8,570.4,56z"/>
		</g>
	</g>
	<g>
		<path fill="#F9F4F2" d="M740.9,305.3c-0.4,0-0.8-0.3-1-0.7c-0.2-0.6,0-1.2,0.6-1.5c0.6-0.3,15-6.3,31-6.3c0.6,0,1.1,0.5,1.1,1.1
			s-0.5,1.1-1.1,1.1c-15.5,0-30,6.1-30.1,6.1C741.2,305.3,741,305.3,740.9,305.3z"/>
		<path fill="#F9F4F2" d="M398.9,526.8c-1.1,0-2.1-0.9-2.2-2c-0.1-1.2,0.8-2.3,2-2.4c0.7-0.1,68-6.4,140.2-40.9
			c1.1-0.5,2.4-0.1,2.9,1c0.5,1.1,0.1,2.4-1,2.9c-73,34.8-141,41.2-141.7,41.3C399,526.8,398.9,526.8,398.9,526.8z"/>
		<path fill="#F9F4F2" d="M557.9,458c-2.5,5.2-4.2,9.8-7.9,14.8c-4.3,5.6-11.4,7.5-14.5,3.9c-3.6-4.1-1.4-10.8,5.8-17.7
			c3.3-3.2,8.5-5.8,13.1-7.6c4.9-2,9-3.3,9-3.3C561,451.8,559.3,455,557.9,458z"/>
		<path fill="#F9F4F2" d="M663.3,408.5c4.3-0.2,9.1-0.5,15.2-2.1c0,0-0.6,0.8-1.7,2.1c-1.1,1.3-2.7,3.1-4.6,5c-1.9,1.9-4,4-6.3,5.7
			c-2.3,1.7-4.7,3.2-7,4.1c-0.5,0.2-1,0.4-1.5,0.6c-8.9,3.2-15.4,1.7-17.1-3.1c-0.7-1.8-0.2-3.8,1-5.6c1.2-1.8,3.2-3.5,5.7-4.6
			c1-0.4,2.1-0.8,3.2-1c2.4-0.5,4.6-0.7,6.7-0.8C659.1,408.7,661.1,408.6,663.3,408.5z"/>
		<path fill="#F9F4F2" d="M688.6,385.2c4.3-0.6,9-1.3,15-3.5c0,0-0.5,0.9-1.5,2.3c-1,1.4-2.4,3.3-4.1,5.4c-1.7,2.1-3.7,4.3-5.8,6.3
			c-2.1,1.9-4.5,3.6-6.7,4.7c-0.5,0.2-1,0.5-1.5,0.7c-8.6,4-15.2,3.1-17.3-1.6c-0.8-1.8-0.5-3.8,0.6-5.7c1-1.9,2.9-3.7,5.3-5
			c1-0.5,2-1,3.1-1.3c2.3-0.7,4.5-1.1,6.6-1.4C684.4,385.8,686.5,385.5,688.6,385.2z"/>
		<path fill="#F9F4F2" d="M622.8,448.7c0,0-3,2.9-7.2,6.1c-4.2,3.3-9.7,6.6-14.5,7.8c-0.5,0.1-1.1,0.2-1.6,0.4
			c-9.2,1.9-15.4-0.3-16.5-5.4c-0.9-3.8,2.8-7.7,8-9.2c1-0.3,2.2-0.5,3.3-0.6c4.8-0.4,8.8,0.2,13.2,0.7
			C611.9,449,616.5,449.3,622.8,448.7z"/>
		<path fill="#F9F4F2" d="M652,388.4c1.1-1.9,2.8-3.8,4.7-5.5c1.8-1.8,3.8-3.5,5.7-5c2-1.6,3.9-2.9,5.3-3.8c1.4-0.9,2.3-1.5,2.3-1.5
			c-1.3,4.1-2,7.5-2.5,10.7c-1,5.7-1.2,10.6-3.6,16.2c-1.3,3.3-3.6,5.8-6.1,7.1c-2.4,1.4-5.1,1.5-6.9,0.1
			C646.3,403.6,647,396.7,652,388.4z"/>
		<path fill="#F9F4F2" d="M745.7,325c0,0-0.1,0.2-0.3,0.7c-0.5,1.3-1.8,4.5-3.7,8.1c-1.2,2.4-2.7,5-4.3,7.5c-1.7,2.3-3.6,4.5-5.6,6
			c-0.4,0.3-0.9,0.7-1.3,1c-7.6,5.7-14.3,6.1-17.3,1.9c-1.2-1.6-1.2-3.6-0.6-5.7c0.6-2.1,2.1-4.2,4.1-6h0c0.8-0.7,1.7-1.3,2.8-1.9
			c2.1-1.1,4.2-2,6.2-2.7c2-0.8,3.9-1.5,6-2.3C735.9,330.2,740.3,328.4,745.7,325z"/>
		<path fill="#F9F4F2" d="M716.6,330.7c-3.8-4-1.7-10.7,5.5-17.8c6.8-6.7,22.5-11.1,22.5-11.1c-7.1,10-7.9,16.9-13.6,24.7
			C726.8,332.1,719.8,334.1,716.6,330.7z"/>
		<path fill="#F9F4F2" d="M672.4,377.7c0-3.1,0.9-7.1,3.1-11.4c1-2,2.5-4,4.2-5.9c1.6-2,3.4-3.8,5.1-5.5c1.9-1.7,3.6-3.3,4.9-4.3
			c1.3-1,2.1-1.7,2.1-1.7c-0.8,4.2-1.3,7.7-1.5,10.9c-0.4,5.7-0.2,10.7-2,16.5c-2.1,6.7-8.2,10.9-12.3,8.4
			C673.6,383.3,672.5,380.8,672.4,377.7z"/>
		<path fill="#F9F4F2" d="M694.8,353.8c-0.4-3.1,0.2-7.2,1.9-11.7c0.8-2.1,2-4.2,3.5-6.2c1.4-2.1,3-4.2,4.5-6c0,0,3.1-3.6,4.3-4.8
			c0.6-0.6,1.1-1.1,1.4-1.4c0.3-0.3,0.5-0.5,0.5-0.5c-0.4,4.2-0.2,11-0.2,11c0.2,5.7,1,10.6-0.3,16.6c-1.4,6.9-7,11.7-11.4,9.6
			C696.5,359.2,695.1,356.9,694.8,353.8z"/>
		<path fill="#F9F4F2" d="M565.8,461.6c-3.8-4-1.8-10.7,5-17.8c3.1-3.3,8.2-6.1,12.7-8.2c4.7-2.3,8.7-3.6,8.7-3.6
			c-2.3,3.7-3.8,7-5,10c-2.2,5.4-3.7,10-7.1,15.1C576.1,462.9,569,464.9,565.8,461.6z"/>
		<path fill="#F9F4F2" d="M626.4,408.6c1.3-1.8,3.1-3.6,5.2-5.2c2-1.6,4.1-3.2,6.1-4.5c4.3-2.8,8.1-4.7,8.1-4.7
			c-1.7,3.9-2.7,7.3-3.5,10.5c-0.7,2.8-1.3,5.4-1.9,8c-0.8,2.6-1.7,5.1-3.1,7.9c-1.6,3.1-4.1,5.5-6.6,6.7c-2.6,1.1-5.2,1.1-7-0.4
			C619.5,423.4,620.8,416.6,626.4,408.6z"/>
		<path fill="#F9F4F2" d="M711.6,359.6c4.2-1,8.9-2.2,14.5-5.1c0,0-0.4,1-1.3,2.5c-0.8,1.5-2.1,3.6-3.6,5.8
			c-1.5,2.3-3.2,4.7-5.1,6.9c-1.9,2.2-4.1,4.1-6.2,5.4c-0.5,0.3-1,0.6-1.4,0.9c-8.2,4.8-14.8,4.5-17.4,0.1c-1-1.7-0.8-3.7,0-5.7
			c0.8-2,2.5-4,4.8-5.5c0.9-0.6,1.9-1.1,3-1.6c2.2-0.9,4.4-1.5,6.5-2.1C707.5,360.6,709.5,360.1,711.6,359.6z"/>
		<path fill="#F9F4F2" d="M595.3,445c-2-1.9-2.6-4.5-1.9-7.6c0.7-3.1,2.7-6.6,5.9-10.4c2.9-3.5,7.9-6.4,12.1-8.9
			c4.5-2.5,8.4-4.1,8.4-4.1c-2,3.8-3.3,7.1-4.3,10.3c-1.8,5.5-3,10.2-6.2,15.5C605.7,445.9,598.7,448.3,595.3,445z"/>
		<path fill="#F9F4F2" d="M651.4,428.7c0,0-2.8,3.1-6.8,6.6c-2,1.7-4.3,3.7-6.7,5.2c-2.4,1.5-4.9,2.8-7.3,3.6
			c-0.5,0.2-1.1,0.3-1.5,0.5c-4.5,1.3-8.4,1.4-11.3,0.6c-2.9-0.8-4.8-2.5-5.5-4.9c-1.1-3.8,2.3-7.8,7.5-9.7c1-0.4,2.1-0.6,3.3-0.8
			C632.6,428.5,638.9,430.8,651.4,428.7z"/>
		<path fill="#F9F4F2" d="M593,466.7c0,0-3.2,2.7-7.5,5.7c-4.4,2.9-10,6-14.8,7c-0.5,0.1-1.1,0.2-1.6,0.3
			c-9.3,1.3-15.3-1.1-16.3-6.2c-0.7-3.8,3.1-7.6,8.5-8.8c1.1-0.2,2.2-0.4,3.4-0.4C574.4,464.1,580.5,467.4,593,466.7z"/>
		<path fill="#F9F4F2" d="M544.5,482.6c0.1-2.3,3.4-3.8,6.9-3c4.7,1.2,7.2,3.5,13.1,5c0,0-7.4,3.4-12.2,3
			C547.3,487.2,544.4,485.3,544.5,482.6z"/>
		<path fill="#F9F4F2" d="M538,489.2c0.4-1.3,2.5-1.7,4.4-0.7c2.5,1.4,3.6,3.1,6.8,4.8c0,0-4.8,0.9-7.5-0.1
			C538.9,492.3,537.5,490.8,538,489.2z"/>
		<path fill="#F9F4F2" d="M529.6,483.4c1.9,0,3.2-2.7,2.6-5.5c-0.8-3.8-2.7-5.9-3.7-10.7c0,0-2.9,5.9-2.7,9.7
			C525.9,481.1,527.4,483.5,529.6,483.4z"/>
		<path fill="#F9F4F2" d="M733.4,336.3c-0.3,0-0.5-0.1-0.8-0.3c-0.4-0.4-0.5-1.1-0.1-1.6c0.6-0.6,14.3-15.3,28.4-15.3
			c0.6,0,1.1,0.5,1.1,1.1s-0.5,1.1-1.1,1.1c-13.2,0-26.7,14.5-26.8,14.6C734,336.2,733.7,336.3,733.4,336.3z"/>
	</g>
	<g>
		<path fill="#F9F4F2" d="M165.7,305.3c-0.1,0-0.3,0-0.4-0.1c-0.1-0.1-14.6-6.1-30.1-6.1c-0.6,0-1.1-0.5-1.1-1.1s0.5-1.1,1.1-1.1
			c16,0,30.4,6.1,31,6.3c0.6,0.2,0.8,0.9,0.6,1.5C166.6,305.1,166.2,305.3,165.7,305.3z"/>
		<path fill="#F9F4F2" d="M507.7,526.8c-0.1,0-0.1,0-0.2,0c-0.7-0.1-68.7-6.4-141.7-41.3c-1.1-0.5-1.6-1.8-1-2.9
			c0.5-1.1,1.8-1.6,2.9-1c72.3,34.5,139.5,40.8,140.2,40.9c1.2,0.1,2.1,1.2,2,2.4C509.8,525.9,508.9,526.8,507.7,526.8z"/>
		<path fill="#F9F4F2" d="M348.7,458c2.5,5.2,4.2,9.8,7.9,14.8c4.3,5.6,11.4,7.5,14.5,3.9c3.6-4.1,1.4-10.8-5.8-17.7
			c-3.3-3.2-8.5-5.8-13.1-7.6c-4.9-2-9-3.3-9-3.3C345.6,451.8,347.3,455,348.7,458z"/>
		<path fill="#F9F4F2" d="M243.3,408.5c-4.3-0.2-9.1-0.5-15.2-2.1c0,0,0.6,0.8,1.7,2.1c1.1,1.3,2.7,3.1,4.6,5c1.9,1.9,4,4,6.3,5.7
			c2.3,1.7,4.7,3.2,7,4.1c0.5,0.2,1,0.4,1.5,0.6c8.9,3.2,15.4,1.7,17.1-3.1c0.7-1.8,0.2-3.8-1-5.6c-1.2-1.8-3.2-3.5-5.7-4.6
			c-1-0.4-2.1-0.8-3.2-1c-2.4-0.5-4.6-0.7-6.7-0.8C247.5,408.7,245.5,408.6,243.3,408.5z"/>
		<path fill="#F9F4F2" d="M218,385.2c-4.3-0.6-9-1.3-15-3.5c0,0,0.5,0.9,1.5,2.3c1,1.4,2.4,3.3,4.1,5.4c1.7,2.1,3.7,4.3,5.8,6.3
			c2.1,1.9,4.5,3.6,6.7,4.7c0.5,0.2,1,0.5,1.5,0.7c8.6,4,15.2,3.1,17.3-1.6c0.8-1.8,0.5-3.8-0.6-5.7c-1-1.9-2.9-3.7-5.3-5
			c-1-0.5-2-1-3.1-1.3c-2.3-0.7-4.5-1.1-6.6-1.4C222.2,385.8,220.1,385.5,218,385.2z"/>
		<path fill="#F9F4F2" d="M283.8,448.7c0,0,3,2.9,7.2,6.1c4.2,3.3,9.7,6.6,14.5,7.8c0.5,0.1,1.1,0.2,1.6,0.4
			c9.2,1.9,15.4-0.3,16.5-5.4c0.9-3.8-2.8-7.7-8-9.2c-1-0.3-2.2-0.5-3.3-0.6c-4.8-0.4-8.8,0.2-13.2,0.7
			C294.8,449,290.1,449.3,283.8,448.7z"/>
		<path fill="#F9F4F2" d="M254.6,388.4c-1.1-1.9-2.8-3.8-4.7-5.5c-1.8-1.8-3.8-3.5-5.7-5c-2-1.6-3.9-2.9-5.3-3.8
			c-1.4-0.9-2.3-1.5-2.3-1.5c1.3,4.1,2,7.5,2.5,10.7c1,5.7,1.2,10.6,3.6,16.2c1.3,3.3,3.6,5.8,6.1,7.1c2.4,1.4,5.1,1.5,6.9,0.1
			C260.4,403.6,259.6,396.7,254.6,388.4z"/>
		<path fill="#F9F4F2" d="M160.9,325c0,0,0.1,0.2,0.3,0.7c0.5,1.3,1.8,4.5,3.7,8.1c1.2,2.4,2.7,5,4.3,7.5c1.7,2.3,3.6,4.5,5.6,6
			c0.4,0.3,0.9,0.7,1.3,1c7.6,5.7,14.3,6.1,17.3,1.9c1.2-1.6,1.2-3.6,0.6-5.7c-0.6-2.1-2.1-4.2-4.1-6h0c-0.8-0.7-1.7-1.3-2.8-1.9
			c-2.1-1.1-4.2-2-6.2-2.7c-2-0.8-3.9-1.5-6-2.3C170.8,330.2,166.4,328.4,160.9,325z"/>
		<path fill="#F9F4F2" d="M190,330.7c3.8-4,1.7-10.7-5.5-17.8c-6.8-6.7-22.5-11.1-22.5-11.1c7.1,10,7.9,16.9,13.6,24.7
			C179.8,332.1,186.8,334.1,190,330.7z"/>
		<path fill="#F9F4F2" d="M234.2,377.7c0-3.1-0.9-7.1-3.1-11.4c-1-2-2.5-4-4.2-5.9c-1.6-2-3.4-3.8-5.1-5.5c-1.9-1.7-3.6-3.3-4.9-4.3
			c-1.3-1-2.1-1.7-2.1-1.7c0.8,4.2,1.3,7.7,1.5,10.9c0.4,5.7,0.2,10.7,2,16.5c2.1,6.7,8.2,10.9,12.3,8.4
			C233,383.3,234.1,380.8,234.2,377.7z"/>
		<path fill="#F9F4F2" d="M211.8,353.8c0.4-3.1-0.2-7.2-1.9-11.7c-0.8-2.1-2-4.2-3.5-6.2c-1.4-2.1-3-4.2-4.5-6c0,0-3.1-3.6-4.3-4.8
			c-0.6-0.6-1.1-1.1-1.4-1.4c-0.3-0.3-0.5-0.5-0.5-0.5c0.4,4.2,0.2,11,0.2,11c-0.2,5.7-1,10.6,0.3,16.6c1.4,6.9,7,11.7,11.4,9.6
			C210.1,359.2,211.5,356.9,211.8,353.8z"/>
		<path fill="#F9F4F2" d="M340.8,461.6c3.8-4,1.8-10.7-5-17.8c-3.1-3.3-8.2-6.1-12.7-8.2c-4.7-2.3-8.7-3.6-8.7-3.6
			c2.3,3.7,3.8,7,5,10c2.2,5.4,3.7,10,7.1,15.1C330.5,462.9,337.6,464.9,340.8,461.6z"/>
		<path fill="#F9F4F2" d="M280.2,408.6c-1.3-1.8-3.1-3.6-5.2-5.2c-2-1.6-4.1-3.2-6.1-4.5c-4.3-2.8-8.1-4.7-8.1-4.7
			c1.7,3.9,2.7,7.3,3.5,10.5c0.7,2.8,1.3,5.4,1.9,8c0.8,2.6,1.7,5.1,3.1,7.9c1.6,3.1,4.1,5.5,6.6,6.7c2.6,1.1,5.2,1.1,7-0.4
			C287.1,423.4,285.8,416.6,280.2,408.6z"/>
		<path fill="#F9F4F2" d="M195,359.6c-4.2-1-8.9-2.2-14.5-5.1c0,0,0.4,1,1.3,2.5c0.8,1.5,2.1,3.6,3.6,5.8c1.5,2.3,3.2,4.7,5.1,6.9
			c1.9,2.2,4.1,4.1,6.2,5.4c0.5,0.3,1,0.6,1.4,0.9c8.2,4.8,14.8,4.5,17.4,0.1c1-1.7,0.8-3.7,0-5.7c-0.8-2-2.5-4-4.8-5.5
			c-0.9-0.6-1.9-1.1-3-1.6c-2.2-0.9-4.4-1.5-6.5-2.1C199.1,360.6,197.1,360.1,195,359.6z"/>
		<path fill="#F9F4F2" d="M311.3,445c2-1.9,2.6-4.5,1.9-7.6c-0.7-3.1-2.7-6.6-5.9-10.4c-2.9-3.5-7.9-6.4-12.1-8.9
			c-4.5-2.5-8.4-4.1-8.4-4.1c2,3.8,3.3,7.1,4.3,10.3c1.8,5.5,3,10.2,6.2,15.5C300.9,445.9,307.9,448.3,311.3,445z"/>
		<path fill="#F9F4F2" d="M255.2,428.7c0,0,2.8,3.1,6.8,6.6c2,1.7,4.3,3.7,6.7,5.2c2.4,1.5,4.9,2.8,7.3,3.6c0.5,0.2,1.1,0.3,1.5,0.5
			c4.5,1.3,8.4,1.4,11.3,0.6c2.9-0.8,4.8-2.5,5.5-4.9c1.1-3.8-2.3-7.8-7.5-9.7c-1-0.4-2.1-0.6-3.3-0.8
			C274,428.5,267.7,430.8,255.2,428.7z"/>
		<path fill="#F9F4F2" d="M313.6,466.7c0,0,3.2,2.7,7.5,5.7c4.4,2.9,10,6,14.8,7c0.5,0.1,1.1,0.2,1.6,0.3c9.3,1.3,15.3-1.1,16.3-6.2
			c0.7-3.8-3.1-7.6-8.5-8.8c-1.1-0.2-2.2-0.4-3.4-0.4C332.2,464.1,326.1,467.4,313.6,466.7z"/>
		<path fill="#F9F4F2" d="M362.1,482.6c-0.1-2.3-3.4-3.8-6.9-3c-4.7,1.2-7.2,3.5-13.1,5c0,0,7.4,3.4,12.2,3
			C359.3,487.2,362.2,485.3,362.1,482.6z"/>
		<path fill="#F9F4F2" d="M368.6,489.2c-0.4-1.3-2.5-1.7-4.4-0.7c-2.5,1.4-3.6,3.1-6.8,4.8c0,0,4.8,0.9,7.5-0.1
			C367.7,492.3,369.1,490.8,368.6,489.2z"/>
		<path fill="#F9F4F2" d="M377,483.4c-1.9,0-3.2-2.7-2.6-5.5c0.8-3.8,2.7-5.9,3.7-10.7c0,0,2.9,5.9,2.7,9.7
			C380.7,481.1,379.2,483.5,377,483.4z"/>
		<path fill="#F9F4F2" d="M173.2,336.3c-0.3,0-0.6-0.1-0.8-0.4c-0.1-0.1-13.7-14.6-26.8-14.6c-0.6,0-1.1-0.5-1.1-1.1
			s0.5-1.1,1.1-1.1c14.1,0,27.9,14.7,28.4,15.3c0.4,0.4,0.4,1.1-0.1,1.6C173.7,336.2,173.4,336.3,173.2,336.3z"/>
	</g>
	<circle fill="#F9F4F2" cx="457.2" cy="325.1" r="4"/>
</g>
</svg>
