<?xml version="1.0" encoding="utf-8"?>
<!-- Generator: Adobe Illustrator 17.1.0, SVG Export Plug-In . SVG Version: 6.00 Build 0)  -->
<!DOCTYPE svg PUBLIC "-//W3C//DTD SVG 1.0//EN" "http://www.w3.org/TR/2001/REC-SVG-20010904/DTD/svg10.dtd">
<svg version="1.0" xmlns="http://www.w3.org/2000/svg" xmlns:xlink="http://www.w3.org/1999/xlink" x="0px" y="0px"
	 viewBox="0 0 260 260" enable-background="new 0 0 260 260" xml:space="preserve">
<g id="background">
	<rect fill="#7dccad" width="260" height="260"/>
</g>
<g id="lock">
	<path fill="#131413" d="M179.2,128.1c0.6-4,1.8-14,1.8-14c0-6.1-3.3-11.4-8.3-14.1v-3.4c0-23.5-19.1-42.7-42.7-42.7
		c-23.5,0-42.7,19.1-42.7,42.7v3.4c-5,2.8-8.3,8-8.3,14.1c0,0,1.2,10,1.8,14c0.6,4,0.8,17.9,0,23.7c-1.8,12.7,2.8,31.8,13.6,41
		c10.9,9.2,20.6,13.3,35.5,13.3s24.6-4.2,35.5-13.3c10.9-9.2,15.4-28.2,13.6-41C178.3,145.9,178.5,132.3,179.2,128.1z M98.5,118.5
		c-0.9,0.7-2.1,1.2-3.4,1.2c-1.3,0-2.4-0.4-3.4-1.2c-1.2-1-2-2.5-2-4.2c0-3,2.4-5.4,5.4-5.4c3,0,5.4,2.4,5.4,5.4
		C100.5,116,99.8,117.6,98.5,118.5z M133.2,159.3v11.9c0,1.8-1.4,3.2-3.2,3.2c-0.9,0-1.7-0.4-2.3-0.9c-0.6-0.6-0.9-1.4-0.9-2.3
		v-11.9c-1.8-1.4-2.9-3.8-2.9-6c0-3.4,2.7-6.1,6.1-6.1c3.4,0,6.1,2.7,6.1,6.1C136.1,155.6,135,158,133.2,159.3z M158.1,99.3
		c-5.6,2.3-9.4,7.7-9.4,14.8c0,5.6-2.6,7.4-2.6,7.4s-9.5-1.7-16.1-1.7c-6.5,0-16.1,1.7-16.1,1.7s-2.6-1.7-2.6-7.4
		c0-7.1-3.9-12.5-9.4-14.8v-2.7c0-15.5,12.6-28.1,28.1-28.1s28.1,12.6,28.1,28.1V99.3z M168.2,118.5c-0.9,0.7-2.1,1.2-3.4,1.2
		s-2.5-0.4-3.4-1.2c-1.2-1-2-2.5-2-4.2c0-3,2.4-5.4,5.4-5.4s5.4,2.4,5.4,5.4C170.2,116,169.4,117.6,168.2,118.5z"/>
</g>
</svg>
